<svg xmlns="http://www.w3.org/2000/svg" xmlns:xlink="http://www.w3.org/1999/xlink" width="300" zoomAndPan="magnify" viewBox="0 0 224.87999 30.000001" height="40" preserveAspectRatio="xMidYMid meet" version="1.0"><defs><g/><clipPath id="id1"><path d="M 3.570312 0 L 221.195312 0 L 221.195312 29.03125 L 3.570312 29.03125 Z M 3.570312 0 " clip-rule="nonzero"/></clipPath><clipPath id="id2"><path d="M 66.304688 9.605469 L 95.335938 9.605469 L 95.335938 21.21875 L 66.304688 21.21875 Z M 66.304688 9.605469 " clip-rule="nonzero"/></clipPath></defs><g clip-path="url(#id1)"><path fill="#ffffff" d="M 3.570312 0 L 221.3125 0 L 221.3125 36.289062 L 3.570312 36.289062 Z M 3.570312 0 " fill-opacity="1" fill-rule="nonzero"/><path fill="#ffffff" d="M 3.570312 0 L 221.3125 0 L 221.3125 29.03125 L 3.570312 29.03125 Z M 3.570312 0 " fill-opacity="1" fill-rule="nonzero"/><path fill="#000000" d="M 3.570312 0 L 221.3125 0 L 221.3125 29.03125 L 3.570312 29.03125 Z M 3.570312 0 " fill-opacity="1" fill-rule="nonzero"/></g><g fill="#000000" fill-opacity="1"><g transform="translate(112.43999, 14.879034)"><g/></g></g><g fill="#ffffff" fill-opacity="1"><g transform="translate(96.995064, 17.975809)"><g/></g></g><g fill="#ffffff" fill-opacity="1"><g transform="translate(99.603431, 17.975809)"><g><path d="M 3.625 -6.078125 C 4.59375 -6.078125 5.304688 -5.835938 5.765625 -5.359375 C 6.234375 -4.878906 6.46875 -4.082031 6.46875 -2.96875 L 6.46875 0 L 2.625 0 C 1.75 0 1.3125 0.539062 1.3125 1.625 C 1.3125 2.125 1.414062 2.875 1.625 3.875 L 0.859375 3.890625 C 0.609375 2.742188 0.484375 1.878906 0.484375 1.296875 C 0.484375 0.710938 0.582031 0.265625 0.78125 -0.046875 C 0.976562 -0.359375 1.226562 -0.570312 1.53125 -0.6875 C 1.394531 -1.351562 1.328125 -2.09375 1.328125 -2.90625 C 1.328125 -3.4375 1.359375 -3.960938 1.421875 -4.484375 C 1.492188 -5.003906 1.566406 -5.425781 1.640625 -5.75 C 1.828125 -5.832031 2.101562 -5.90625 2.46875 -5.96875 C 2.84375 -6.039062 3.226562 -6.078125 3.625 -6.078125 Z M 5.546875 -0.828125 L 5.546875 -2.984375 C 5.546875 -3.796875 5.375 -4.375 5.03125 -4.71875 C 4.695312 -5.070312 4.179688 -5.25 3.484375 -5.25 C 3.085938 -5.25 2.738281 -5.207031 2.4375 -5.125 C 2.3125 -4.4375 2.25 -3.695312 2.25 -2.90625 C 2.25 -2.519531 2.265625 -2.132812 2.296875 -1.75 C 2.335938 -1.363281 2.378906 -1.054688 2.421875 -0.828125 Z M 5.546875 -0.828125 "/></g></g></g><g fill="#ffffff" fill-opacity="1"><g transform="translate(106.776949, 17.975809)"><g><path d="M 1.078125 -8.546875 L 1.984375 -8.546875 L 1.984375 0 L 1.078125 0 Z M 1.078125 -8.546875 "/></g></g></g><g fill="#ffffff" fill-opacity="1"><g transform="translate(109.834316, 17.975809)"><g><path d="M 6.375 -0.828125 L 6.375 0 L 0.46875 0 L 0.46875 -0.828125 L 4.34375 -0.828125 L 4.34375 -2.203125 C 4.34375 -3.378906 4.113281 -4.203125 3.65625 -4.671875 C 3.195312 -5.140625 2.664062 -5.375 2.0625 -5.375 L 1.09375 -5.375 L 1.03125 -6.0625 C 1.113281 -6.09375 1.273438 -6.125 1.515625 -6.15625 C 1.753906 -6.1875 1.988281 -6.203125 2.21875 -6.203125 C 3.082031 -6.203125 3.804688 -5.890625 4.390625 -5.265625 C 4.972656 -4.640625 5.265625 -3.625 5.265625 -2.21875 L 5.265625 -0.828125 Z M 6.375 -0.828125 "/></g></g></g><g fill="#ffffff" fill-opacity="1"><g transform="translate(116.214438, 17.975809)"><g><path d="M 0 0 Z M 7.046875 -0.828125 L 7.046875 0 L 0 0 L 0 -0.828125 L 4.78125 -0.828125 L 4.78125 -4.046875 C 4.78125 -4.441406 4.675781 -4.738281 4.46875 -4.9375 C 4.257812 -5.144531 3.945312 -5.25 3.53125 -5.25 C 3.175781 -5.25 2.472656 -5.1875 1.421875 -5.0625 L 1.078125 -5.03125 L 1.046875 -5.703125 C 2.242188 -5.953125 3.140625 -6.078125 3.734375 -6.078125 C 5.035156 -6.078125 5.6875 -5.394531 5.6875 -4.03125 L 5.6875 -0.828125 Z M 3.515625 -7.953125 L 4.421875 -7.953125 L 4.421875 -6.953125 L 3.515625 -6.953125 Z M 3.515625 -7.953125 "/></g></g></g><g fill="#ffffff" fill-opacity="1"><g transform="translate(123.261148, 17.975809)"><g><path d="M 0 0 Z M 4.46875 -0.828125 L 4.46875 0 L 0 0 L 0 -0.828125 L 1.78125 -0.828125 L 1.78125 -5.953125 L 2.6875 -5.953125 L 2.6875 -0.828125 Z M 0.546875 -7.953125 L 1.453125 -7.953125 L 1.453125 -6.953125 L 0.546875 -6.953125 Z M 2.03125 -7.953125 L 2.9375 -7.953125 L 2.9375 -6.953125 L 2.03125 -6.953125 Z M 2.03125 -7.953125 "/></g></g></g><g fill="#ffffff" fill-opacity="1"><g transform="translate(127.724853, 17.975809)"><g><path d="M 8.59375 -5.953125 C 8.695312 -5.503906 8.785156 -5.023438 8.859375 -4.515625 C 8.941406 -4.003906 8.984375 -3.601562 8.984375 -3.3125 L 8.984375 0 L 6.765625 0 C 6.273438 0 5.832031 -0.164062 5.4375 -0.5 C 5.15625 -0.164062 4.78125 0 4.3125 0 L 0 0 L 0 -0.828125 L 1.921875 -0.828125 L 1.921875 -5.359375 L 2.84375 -5.359375 L 2.84375 -0.828125 L 4.03125 -0.828125 C 4.394531 -0.828125 4.65625 -0.984375 4.8125 -1.296875 C 4.976562 -1.609375 5.0625 -2 5.0625 -2.46875 L 5.0625 -5.359375 L 5.984375 -5.359375 L 5.984375 -2.484375 C 5.984375 -2.003906 5.925781 -1.582031 5.8125 -1.21875 C 5.925781 -1.125 6.070312 -1.035156 6.25 -0.953125 C 6.4375 -0.867188 6.625 -0.828125 6.8125 -0.828125 L 8.0625 -0.828125 L 8.0625 -3.40625 C 8.0625 -3.707031 8.035156 -4.085938 7.984375 -4.546875 C 7.941406 -5.003906 7.894531 -5.460938 7.84375 -5.921875 Z M 8.59375 -5.953125 "/></g></g></g><g fill="#ffffff" fill-opacity="1"><g transform="translate(137.527471, 17.975809)"><g><path d="M 3.109375 -0.828125 L 3.109375 0 L 1.078125 0 L 1.078125 -8.546875 L 1.984375 -8.546875 L 1.984375 -0.828125 Z M 3.109375 -0.828125 "/></g></g></g><g fill="#ffffff" fill-opacity="1"><g transform="translate(140.63421, 17.975809)"><g><path d="M 0 0 Z M 2.6875 -5.953125 L 2.6875 0 L 0 0 L 0 -0.828125 L 1.78125 -0.828125 L 1.78125 -5.953125 Z M 1.78125 0.953125 L 2.6875 0.953125 L 2.6875 1.953125 L 1.78125 1.953125 Z M 1.78125 0.953125 "/></g></g></g><g fill="#ffffff" fill-opacity="1"><g transform="translate(144.274505, 17.975809)"><g/></g></g><g fill="#ffffff" fill-opacity="1"><g transform="translate(146.89171, 17.975809)"><g><path d="M 3.28125 -0.46875 C 2.769531 -0.457031 2.382812 -0.320312 2.125 -0.0625 C 1.863281 0.1875 1.734375 0.582031 1.734375 1.125 C 1.734375 2.34375 2.394531 2.953125 3.71875 2.953125 C 4.289062 2.953125 5.023438 2.863281 5.921875 2.6875 L 6.03125 3.421875 L 5.640625 3.5 C 4.828125 3.675781 4.125 3.765625 3.53125 3.765625 C 2.632812 3.765625 1.953125 3.53125 1.484375 3.0625 C 1.023438 2.601562 0.796875 1.9375 0.796875 1.0625 C 0.796875 0.40625 0.929688 -0.101562 1.203125 -0.46875 C 1.472656 -0.84375 1.878906 -1.09375 2.421875 -1.21875 C 1.847656 -1.6875 1.390625 -2.222656 1.046875 -2.828125 C 0.703125 -3.429688 0.523438 -3.960938 0.515625 -4.421875 L 0.46875 -5.28125 C 1.488281 -5.8125 2.472656 -6.078125 3.421875 -6.078125 C 4.359375 -6.078125 5.34375 -5.8125 6.375 -5.28125 L 6.34375 -4.421875 C 6.332031 -4.117188 6.242188 -3.769531 6.078125 -3.375 C 5.921875 -2.976562 5.6875 -2.578125 5.375 -2.171875 C 5.070312 -1.773438 4.710938 -1.421875 4.296875 -1.109375 C 4.785156 -0.921875 5.273438 -0.828125 5.765625 -0.828125 L 7.03125 -0.828125 L 7.03125 0 L 5.765625 0 C 5.367188 0 4.960938 -0.046875 4.546875 -0.140625 C 4.140625 -0.234375 3.765625 -0.367188 3.421875 -0.546875 Z M 1.421875 -4.8125 C 1.421875 -4.164062 1.601562 -3.554688 1.96875 -2.984375 C 2.34375 -2.421875 2.828125 -1.941406 3.421875 -1.546875 C 4.035156 -1.941406 4.523438 -2.421875 4.890625 -2.984375 C 5.265625 -3.554688 5.453125 -4.164062 5.453125 -4.8125 C 4.671875 -5.101562 3.992188 -5.25 3.421875 -5.25 C 2.878906 -5.25 2.210938 -5.101562 1.421875 -4.8125 Z M 1.421875 -4.8125 "/></g></g></g><g fill="#ffffff" fill-opacity="1"><g transform="translate(153.914609, 17.975809)"><g><path d="M 0 0 Z M 6.171875 -5.828125 L 6.171875 0 L 0 0 L 0 -0.828125 L 1.6875 -0.828125 C 1.476562 -1.242188 1.375 -1.910156 1.375 -2.828125 C 1.375 -3.648438 1.457031 -4.28125 1.625 -4.71875 C 1.789062 -5.164062 2.070312 -5.476562 2.46875 -5.65625 C 2.875 -5.84375 3.445312 -5.9375 4.1875 -5.9375 C 4.789062 -5.9375 5.335938 -5.910156 5.828125 -5.859375 Z M 2.28125 -2.859375 C 2.28125 -1.847656 2.425781 -1.171875 2.71875 -0.828125 L 5.25 -0.828125 L 5.25 -5.09375 C 4.707031 -5.132812 4.328125 -5.15625 4.109375 -5.15625 C 3.609375 -5.15625 3.226562 -5.078125 2.96875 -4.921875 C 2.707031 -4.773438 2.523438 -4.539062 2.421875 -4.21875 C 2.328125 -3.894531 2.28125 -3.441406 2.28125 -2.859375 Z M 3.515625 -7.953125 L 4.421875 -7.953125 L 4.421875 -6.953125 L 3.515625 -6.953125 Z M 3.515625 -7.953125 "/></g></g></g><g fill="#ffffff" fill-opacity="1"><g transform="translate(160.790711, 17.975809)"><g><path d="M 2.21875 -6.203125 C 3.082031 -6.203125 3.804688 -5.890625 4.390625 -5.265625 C 4.972656 -4.640625 5.265625 -3.625 5.265625 -2.21875 L 5.265625 0 L 0.46875 0 L 0.46875 -0.828125 L 4.34375 -0.828125 L 4.34375 -2.203125 C 4.34375 -3.378906 4.113281 -4.203125 3.65625 -4.671875 C 3.195312 -5.140625 2.664062 -5.375 2.0625 -5.375 L 1.09375 -5.375 L 1.03125 -6.0625 C 1.113281 -6.09375 1.273438 -6.125 1.515625 -6.15625 C 1.753906 -6.1875 1.988281 -6.203125 2.21875 -6.203125 Z M 2.21875 -6.203125 "/></g></g></g><g clip-path="url(#id2)"><path fill="#ffffff" d="M 71.996094 11.101562 C 71.660156 11.496094 71.125 11.804688 70.589844 11.757812 C 70.523438 11.230469 70.785156 10.664062 71.09375 10.316406 C 71.425781 9.914062 72.011719 9.625 72.484375 9.605469 C 72.539062 10.15625 72.324219 10.699219 71.996094 11.101562 Z M 72.480469 11.863281 C 71.703125 11.820312 71.042969 12.300781 70.675781 12.300781 C 70.300781 12.300781 69.738281 11.886719 69.125 11.898438 C 68.332031 11.910156 67.589844 12.355469 67.183594 13.070312 C 66.347656 14.496094 66.964844 16.605469 67.773438 17.765625 C 68.167969 18.339844 68.640625 18.96875 69.265625 18.949219 C 69.855469 18.925781 70.089844 18.566406 70.804688 18.566406 C 71.519531 18.566406 71.726562 18.949219 72.351562 18.9375 C 72.996094 18.925781 73.402344 18.363281 73.800781 17.789062 C 74.25 17.136719 74.433594 16.5 74.445312 16.46875 C 74.433594 16.457031 73.195312 15.988281 73.1875 14.570312 C 73.175781 13.390625 74.160156 12.824219 74.207031 12.792969 C 73.648438 11.976562 72.78125 11.886719 72.480469 11.863281 Z M 76.949219 10.261719 L 76.949219 18.875 L 78.296875 18.875 L 78.296875 15.929688 L 80.164062 15.929688 C 81.867188 15.929688 83.066406 14.769531 83.066406 13.089844 C 83.066406 11.410156 81.890625 10.261719 80.207031 10.261719 Z M 78.296875 11.390625 L 79.851562 11.390625 C 81.023438 11.390625 81.691406 12.007812 81.691406 13.097656 C 81.691406 14.183594 81.023438 14.808594 79.847656 14.808594 L 78.296875 14.808594 Z M 85.527344 18.941406 C 86.375 18.941406 87.160156 18.515625 87.515625 17.84375 L 87.542969 17.84375 L 87.542969 18.875 L 88.789062 18.875 L 88.789062 14.589844 C 88.789062 13.347656 87.789062 12.542969 86.246094 12.542969 C 84.8125 12.542969 83.757812 13.355469 83.71875 14.472656 L 84.929688 14.472656 C 85.03125 13.941406 85.527344 13.59375 86.207031 13.59375 C 87.03125 13.59375 87.492188 13.976562 87.492188 14.675781 L 87.492188 15.152344 L 85.8125 15.25 C 84.246094 15.347656 83.398438 15.980469 83.398438 17.085938 C 83.398438 18.203125 84.273438 18.941406 85.527344 18.941406 Z M 85.890625 17.921875 C 85.171875 17.921875 84.714844 17.578125 84.714844 17.054688 C 84.714844 16.511719 85.152344 16.195312 85.996094 16.148438 L 87.492188 16.054688 L 87.492188 16.539062 C 87.492188 17.347656 86.800781 17.921875 85.890625 17.921875 Z M 90.457031 21.21875 C 91.769531 21.21875 92.386719 20.722656 92.929688 19.214844 L 95.292969 12.628906 L 93.925781 12.628906 L 92.335938 17.714844 L 92.308594 17.714844 L 90.722656 12.628906 L 89.3125 12.628906 L 91.597656 18.898438 L 91.472656 19.28125 C 91.269531 19.925781 90.933594 20.175781 90.339844 20.175781 C 90.234375 20.175781 90.027344 20.164062 89.941406 20.152344 L 89.941406 21.1875 C 90.019531 21.207031 90.355469 21.21875 90.457031 21.21875 Z M 90.457031 21.21875 " fill-opacity="1" fill-rule="nonzero"/></g></svg>