<svg xmlns="http://www.w3.org/2000/svg" xmlns:xlink="http://www.w3.org/1999/xlink" width="40" zoomAndPan="magnify" viewBox="0 0 30 30.000001" height="40" preserveAspectRatio="xMidYMid meet" version="1.0"><defs><g/><clipPath id="ba6da1fe02"><path d="M 0.484375 0 L 29.515625 0 L 29.515625 29.03125 L 0.484375 29.03125 Z M 0.484375 0 " clip-rule="nonzero"/></clipPath></defs><g clip-path="url(#ba6da1fe02)"><path fill="#ffffff" d="M 0.484375 0 L 29.515625 0 L 29.515625 36.289062 L 0.484375 36.289062 Z M 0.484375 0 " fill-opacity="1" fill-rule="nonzero"/><path fill="#ffffff" d="M 0.484375 0 L 29.515625 0 L 29.515625 29.03125 L 0.484375 29.03125 Z M 0.484375 0 " fill-opacity="1" fill-rule="nonzero"/><path fill="#ffffff" d="M 0.484375 0 L 29.515625 0 L 29.515625 29.03125 L 0.484375 29.03125 Z M 0.484375 0 " fill-opacity="1" fill-rule="nonzero"/></g><g fill="#000000" fill-opacity="1"><g transform="translate(6.029503, 16.451611)"><g><path d="M 0.234375 0 Z M 2.59375 0 L 1.625 0 C 1.625 0.457031 1.539062 0.8125 1.375 1.0625 C 1.21875 1.3125 0.976562 1.4375 0.65625 1.4375 C 0.601562 1.4375 0.460938 1.429688 0.234375 1.421875 L 0.234375 0.71875 L 0.4375 0.734375 C 0.570312 0.734375 0.671875 0.675781 0.734375 0.5625 C 0.804688 0.457031 0.84375 0.300781 0.84375 0.09375 L 0.84375 -2.90625 L 1.625 -2.90625 L 1.625 -0.703125 L 2.59375 -0.703125 Z M 0.875 -4.203125 L 1.59375 -4.203125 L 1.59375 -3.453125 L 0.875 -3.453125 Z M 0.875 -4.203125 "/></g></g></g><g fill="#000000" fill-opacity="1"><g transform="translate(8.613367, 16.451611)"><g><path d="M 2.109375 -0.703125 L 2.109375 0 L 0 0 L 0 -0.703125 L 0.71875 -0.703125 L 0.71875 -4.0625 L 1.5 -4.0625 L 1.5 -0.703125 Z M 2.109375 -0.703125 "/></g></g></g><g fill="#000000" fill-opacity="1"><g transform="translate(10.715296, 16.451611)"><g><path d="M 0 0 Z M 2.515625 -0.703125 L 2.515625 0 L 0 0 L 0 -0.703125 L 0.859375 -0.703125 L 0.859375 -2.90625 L 1.640625 -2.90625 L 1.640625 -0.703125 Z M 0.890625 0.453125 L 1.609375 0.453125 L 1.609375 1.21875 L 0.890625 1.21875 Z M 0.890625 0.453125 "/></g></g></g><g fill="#000000" fill-opacity="1"><g transform="translate(13.229484, 16.451611)"><g><path d="M 2.1875 -2.953125 C 2.582031 -2.953125 2.882812 -2.894531 3.09375 -2.78125 C 3.3125 -2.664062 3.457031 -2.5 3.53125 -2.28125 C 3.613281 -2.070312 3.65625 -1.796875 3.65625 -1.453125 L 3.65625 0 L 0 0 L 0 -0.703125 L 0.90625 -0.703125 C 0.851562 -0.984375 0.828125 -1.234375 0.828125 -1.453125 C 0.828125 -1.660156 0.847656 -1.882812 0.890625 -2.125 C 0.929688 -2.375 0.976562 -2.585938 1.03125 -2.765625 C 1.132812 -2.816406 1.289062 -2.859375 1.5 -2.890625 C 1.707031 -2.929688 1.9375 -2.953125 2.1875 -2.953125 Z M 1.578125 -1.453125 C 1.578125 -1.316406 1.585938 -1.179688 1.609375 -1.046875 C 1.628906 -0.910156 1.644531 -0.796875 1.65625 -0.703125 L 2.875 -0.703125 L 2.875 -1.46875 C 2.875 -1.738281 2.820312 -1.9375 2.71875 -2.0625 C 2.613281 -2.195312 2.410156 -2.265625 2.109375 -2.265625 C 1.960938 -2.265625 1.8125 -2.25 1.65625 -2.21875 C 1.601562 -1.925781 1.578125 -1.671875 1.578125 -1.453125 Z M 1.578125 -1.453125 "/></g></g></g><g fill="#000000" fill-opacity="1"><g transform="translate(17.172084, 16.451611)"><g><path d="M 1.8125 -0.703125 L 1.8125 0 L 0.46875 0 L 0.46875 -4.0625 L 1.25 -4.0625 L 1.25 -0.703125 Z M 1.8125 -0.703125 "/></g></g></g><g fill="#000000" fill-opacity="1"><g transform="translate(18.983695, 16.451611)"><g><path d="M 4.46875 -2.90625 C 4.519531 -2.664062 4.5625 -2.414062 4.59375 -2.15625 C 4.625 -1.894531 4.640625 -1.710938 4.640625 -1.609375 L 4.640625 0 L 3.4375 0 C 3.3125 0 3.1875 -0.0195312 3.0625 -0.0625 C 2.945312 -0.101562 2.851562 -0.15625 2.78125 -0.21875 C 2.625 -0.0703125 2.429688 0 2.203125 0 L 0 0 L 0 -0.703125 L 0.890625 -0.703125 L 0.890625 -2.609375 L 1.671875 -2.609375 L 1.671875 -0.703125 L 1.9375 -0.703125 C 2.082031 -0.703125 2.191406 -0.757812 2.265625 -0.875 C 2.347656 -1 2.390625 -1.15625 2.390625 -1.34375 L 2.390625 -2.609375 L 3.171875 -2.609375 L 3.171875 -1.34375 C 3.171875 -1.144531 3.148438 -0.96875 3.109375 -0.8125 C 3.148438 -0.78125 3.195312 -0.753906 3.25 -0.734375 C 3.3125 -0.710938 3.367188 -0.703125 3.421875 -0.703125 L 3.859375 -0.703125 L 3.859375 -1.5 C 3.859375 -1.75 3.851562 -1.957031 3.84375 -2.125 C 3.84375 -2.300781 3.828125 -2.554688 3.796875 -2.890625 Z M 4.46875 -2.90625 "/></g></g></g></svg>