<svg xmlns="http://www.w3.org/2000/svg" xmlns:xlink="http://www.w3.org/1999/xlink" width="500" zoomAndPan="magnify" viewBox="0 0 375 374.999991" height="500" preserveAspectRatio="xMidYMid meet" version="1.0"><defs><g/><clipPath id="id1"><path d="M 9.375 9.375 L 365.625 9.375 L 365.625 365.625 L 9.375 365.625 Z M 9.375 9.375 " clip-rule="nonzero"/></clipPath></defs><g clip-path="url(#id1)"><path fill="#3d3d33" d="M 187.5 365.054688 C 140.046875 365.054688 95.445312 346.601562 61.957031 313.042969 C 28.398438 279.484375 9.945312 234.882812 9.945312 187.5 C 9.945312 140.046875 28.398438 95.445312 61.957031 61.957031 C 95.515625 28.398438 140.117188 9.945312 187.5 9.945312 C 234.953125 9.945312 279.554688 28.398438 313.042969 61.957031 C 346.601562 95.515625 365.054688 140.117188 365.054688 187.5 C 365.054688 234.953125 346.601562 279.554688 313.042969 313.042969 C 279.554688 346.601562 234.953125 365.054688 187.5 365.054688 Z M 187.5 24.195312 C 143.894531 24.195312 102.855469 41.152344 72.003906 72.003906 C 41.152344 102.855469 24.195312 143.894531 24.195312 187.5 C 24.195312 231.105469 41.152344 272.144531 72.003906 302.996094 C 102.855469 333.847656 143.894531 350.804688 187.5 350.804688 C 231.105469 350.804688 272.144531 333.847656 302.996094 302.996094 C 333.847656 272.144531 350.804688 231.105469 350.804688 187.5 C 350.804688 143.894531 333.847656 102.855469 302.996094 72.003906 C 272.144531 41.152344 231.105469 24.195312 187.5 24.195312 Z M 187.5 24.195312 " fill-opacity="1" fill-rule="nonzero"/></g><g fill="#3d3d33" fill-opacity="1"><g transform="translate(111.127156, 206.624986)"><g><path d="M 2.09375 0 Z M 21.859375 0 L 14.625 0 L 14.625 0.3125 C 14.625 4.4375 13.90625 7.59375 12.46875 9.78125 C 11.039062 11.96875 8.878906 13.0625 5.984375 13.0625 C 5.171875 13.0625 4.296875 13.007812 3.359375 12.90625 L 2.09375 12.796875 L 2.09375 8.390625 C 3.25 8.492188 4.191406 8.546875 4.921875 8.546875 C 6.492188 8.546875 7.679688 7.914062 8.484375 6.65625 C 9.296875 5.394531 9.703125 3.628906 9.703125 1.359375 L 9.703125 -26.171875 L 14.625 -26.171875 L 14.625 -4.453125 L 21.859375 -4.453125 Z M 10.046875 -36.609375 L 14.8125 -36.609375 L 14.8125 -31.46875 L 10.046875 -31.46875 Z M 10.046875 -36.609375 "/></g></g></g><g fill="#3d3d33" fill-opacity="1"><g transform="translate(132.99464, 206.624986)"><g><path d="M 17.71875 -4.453125 L 17.71875 0 L 0 0 L 0 -4.453125 L 6.453125 -4.453125 L 6.453125 -37.328125 L 11.4375 -37.328125 L 11.4375 -4.453125 Z M 17.71875 -4.453125 "/></g></g></g><g fill="#3d3d33" fill-opacity="1"><g transform="translate(150.719362, 206.624986)"><g><path d="M 0 0 Z M 20.609375 -4.453125 L 20.609375 0 L 0 0 L 0 -4.453125 L 7.8125 -4.453125 L 7.8125 -26.21875 L 12.796875 -26.21875 L 12.796875 -4.453125 Z M 7.921875 4.1875 L 12.6875 4.1875 L 12.6875 9.328125 L 7.921875 9.328125 Z M 7.921875 4.1875 "/></g></g></g><g fill="#3d3d33" fill-opacity="1"><g transform="translate(171.328282, 206.624986)"><g><path d="M 18.5625 -26.75 C 23.101562 -26.75 26.363281 -25.679688 28.34375 -23.546875 C 30.320312 -21.410156 31.3125 -17.929688 31.3125 -13.109375 L 31.3125 0 L 0 0 L 0 -4.453125 L 8.5 -4.453125 C 8.007812 -7.316406 7.765625 -10.132812 7.765625 -12.90625 C 7.765625 -15.101562 7.921875 -17.328125 8.234375 -19.578125 C 8.546875 -21.835938 8.894531 -23.71875 9.28125 -25.21875 C 10.226562 -25.601562 11.53125 -25.953125 13.1875 -26.265625 C 14.84375 -26.585938 16.632812 -26.75 18.5625 -26.75 Z M 12.6875 -12.90625 C 12.6875 -11.332031 12.765625 -9.765625 12.921875 -8.203125 C 13.078125 -6.648438 13.242188 -5.398438 13.421875 -4.453125 L 26.328125 -4.453125 L 26.328125 -13.21875 C 26.328125 -16.425781 25.648438 -18.738281 24.296875 -20.15625 C 22.953125 -21.570312 20.8125 -22.28125 17.875 -22.28125 C 16.375 -22.28125 14.90625 -22.125 13.46875 -21.8125 C 12.945312 -18.59375 12.6875 -15.625 12.6875 -12.90625 Z M 12.6875 -12.90625 "/></g></g></g><g fill="#3d3d33" fill-opacity="1"><g transform="translate(205.564859, 206.624986)"><g><path d="M 14.53125 -4.453125 L 14.53125 0 L 4.5625 0 L 4.5625 -37.328125 L 9.546875 -37.328125 L 9.546875 -4.453125 Z M 14.53125 -4.453125 "/></g></g></g><g fill="#3d3d33" fill-opacity="1"><g transform="translate(220.090741, 206.624986)"><g><path d="M 38.640625 -26.21875 C 39.066406 -24.15625 39.441406 -21.992188 39.765625 -19.734375 C 40.097656 -17.484375 40.265625 -15.765625 40.265625 -14.578125 L 40.265625 0 L 30.15625 0 C 27.988281 0 26.046875 -0.695312 24.328125 -2.09375 C 23.035156 -0.695312 21.34375 0 19.25 0 L 0 0 L 0 -4.453125 L 8.34375 -4.453125 L 8.34375 -23.59375 L 13.3125 -23.59375 L 13.3125 -4.453125 L 17.625 -4.453125 C 19.15625 -4.453125 20.28125 -5.097656 21 -6.390625 C 21.71875 -7.691406 22.078125 -9.320312 22.078125 -11.28125 L 22.078125 -23.59375 L 27.0625 -23.59375 L 27.0625 -11.328125 C 27.0625 -9.335938 26.832031 -7.554688 26.375 -5.984375 C 26.863281 -5.597656 27.457031 -5.242188 28.15625 -4.921875 C 28.851562 -4.609375 29.550781 -4.453125 30.25 -4.453125 L 35.296875 -4.453125 L 35.296875 -14.578125 C 35.296875 -17.023438 35.015625 -20.851562 34.453125 -26.0625 Z M 38.640625 -26.21875 "/></g></g></g></svg>