<svg xmlns="http://www.w3.org/2000/svg" xmlns:xlink="http://www.w3.org/1999/xlink" width="1080" zoomAndPan="magnify" viewBox="0 0 810 809.999993" height="1080" preserveAspectRatio="xMidYMid meet" version="1.0"><defs><clipPath id="id1"><path d="M 77.90625 123.699219 L 731.90625 123.699219 L 731.90625 573 L 77.90625 573 Z M 77.90625 123.699219 " clip-rule="nonzero"/></clipPath><clipPath id="id2"><path d="M 77.90625 637 L 454 637 L 454 655 L 77.90625 655 Z M 77.90625 637 " clip-rule="nonzero"/></clipPath><clipPath id="id3"><path d="M 436 606 L 517 606 L 517 686.199219 L 436 686.199219 Z M 436 606 " clip-rule="nonzero"/></clipPath><clipPath id="id4"><path d="M 499 637 L 731.90625 637 L 731.90625 655 L 499 655 Z M 499 637 " clip-rule="nonzero"/></clipPath></defs><path fill="#04bb9c" d="M 328.957031 395.1875 L 328.957031 457.277344 C 328.957031 474.539062 349.113281 483.9375 362.332031 472.839844 L 492.449219 363.628906 C 502.121094 355.507812 502.121094 340.625 492.449219 332.503906 L 362.332031 223.292969 C 349.113281 212.195312 328.957031 221.597656 328.957031 238.855469 Z M 328.957031 395.1875 " fill-opacity="1" fill-rule="nonzero"/><g clip-path="url(#id1)"><path fill="#04182d" d="M 678.023438 572.433594 L 131.792969 572.433594 C 102.121094 572.433594 77.984375 548.296875 77.984375 518.621094 L 77.984375 177.511719 C 77.984375 147.835938 102.121094 123.699219 131.792969 123.699219 L 678.023438 123.699219 C 707.691406 123.699219 731.824219 147.835938 731.824219 177.511719 L 731.824219 518.621094 C 731.824219 548.296875 707.691406 572.433594 678.023438 572.433594 Z M 131.792969 141.195312 C 111.769531 141.195312 95.480469 157.484375 95.480469 177.511719 L 95.480469 518.621094 C 95.480469 538.648438 111.769531 554.9375 131.792969 554.9375 L 678.023438 554.9375 C 698.042969 554.9375 714.332031 538.648438 714.332031 518.621094 L 714.332031 177.511719 C 714.332031 157.484375 698.042969 141.195312 678.023438 141.195312 Z M 131.792969 141.195312 " fill-opacity="1" fill-rule="nonzero"/></g><g clip-path="url(#id2)"><path fill="#04182d" d="M 445.128906 654.832031 L 86.734375 654.832031 C 81.902344 654.832031 77.984375 650.914062 77.984375 646.082031 C 77.984375 641.25 81.902344 637.335938 86.734375 637.335938 L 445.128906 637.335938 C 449.957031 637.335938 453.875 641.25 453.875 646.082031 C 453.875 650.914062 449.957031 654.832031 445.128906 654.832031 Z M 445.128906 654.832031 " fill-opacity="1" fill-rule="nonzero"/></g><g clip-path="url(#id3)"><path fill="#04182d" d="M 476.445312 686.15625 C 454.351562 686.15625 436.378906 668.179688 436.378906 646.082031 C 436.378906 623.984375 454.351562 606.011719 476.445312 606.011719 C 498.539062 606.011719 516.511719 623.984375 516.511719 646.082031 C 516.511719 668.179688 498.539062 686.15625 476.445312 686.15625 Z M 476.445312 623.507812 C 464 623.507812 453.875 633.636719 453.875 646.082031 C 453.875 658.535156 464 668.660156 476.445312 668.660156 C 488.890625 668.660156 499.019531 658.535156 499.019531 646.082031 C 499.019531 633.636719 488.890625 623.507812 476.445312 623.507812 Z M 476.445312 623.507812 " fill-opacity="1" fill-rule="nonzero"/></g><g clip-path="url(#id4)"><path fill="#04182d" d="M 723.078125 654.832031 L 507.765625 654.832031 C 502.933594 654.832031 499.019531 650.914062 499.019531 646.082031 C 499.019531 641.25 502.933594 637.335938 507.765625 637.335938 L 723.078125 637.335938 C 727.910156 637.335938 731.824219 641.25 731.824219 646.082031 C 731.824219 650.914062 727.910156 654.832031 723.078125 654.832031 Z M 723.078125 654.832031 " fill-opacity="1" fill-rule="nonzero"/></g></svg>