<svg xmlns="http://www.w3.org/2000/svg" xmlns:xlink="http://www.w3.org/1999/xlink" width="1080" zoomAndPan="magnify" viewBox="0 0 810 809.999993" height="1080" preserveAspectRatio="xMidYMid meet" version="1.0"><defs><clipPath id="id1"><path d="M 243 313.46875 L 545.25 313.46875 L 545.25 484.46875 L 243 484.46875 Z M 243 313.46875 " clip-rule="nonzero"/></clipPath></defs><g clip-path="url(#id1)"><path fill="#000000" d="M 531.027344 375.230469 L 525.988281 375.230469 L 525.988281 359.527344 C 525.988281 350.847656 518.929688 343.777344 510.261719 343.777344 L 502.875 343.777344 L 502.875 329.832031 C 502.875 320.835938 495.5625 313.511719 486.578125 313.511719 L 468.207031 313.511719 C 459.222656 313.511719 451.90625 320.835938 451.90625 329.832031 L 451.90625 375.230469 L 336.34375 375.230469 L 336.34375 329.832031 C 336.34375 320.835938 329.027344 313.511719 320.042969 313.511719 L 301.671875 313.511719 C 292.6875 313.511719 285.375 320.835938 285.375 329.832031 L 285.375 343.777344 L 277.988281 343.777344 C 269.320312 343.777344 262.261719 350.847656 262.261719 359.527344 L 262.261719 375.230469 L 257.222656 375.230469 C 249.382812 375.230469 243 381.625 243 389.476562 L 243 408.464844 C 243 416.316406 249.382812 422.707031 257.222656 422.707031 L 262.261719 422.707031 L 262.261719 438.410156 C 262.261719 447.09375 269.320312 454.160156 277.988281 454.160156 L 285.375 454.160156 L 285.375 468.105469 C 285.375 477.105469 292.6875 484.425781 301.671875 484.425781 L 320.042969 484.425781 C 329.027344 484.425781 336.34375 477.105469 336.34375 468.105469 L 336.34375 422.707031 L 451.90625 422.707031 L 451.90625 468.105469 C 451.90625 477.105469 459.222656 484.425781 468.207031 484.425781 L 486.578125 484.425781 C 495.5625 484.425781 502.875 477.105469 502.875 468.105469 L 502.875 454.160156 L 510.261719 454.160156 C 518.929688 454.160156 525.988281 447.09375 525.988281 438.410156 L 525.988281 422.707031 L 531.027344 422.707031 C 538.867188 422.707031 545.25 416.316406 545.25 408.464844 L 545.25 389.476562 C 545.25 381.625 538.867188 375.230469 531.027344 375.230469 Z M 257.222656 413.210938 C 254.609375 413.210938 252.480469 411.082031 252.480469 408.464844 L 252.480469 389.476562 C 252.480469 386.859375 254.609375 384.726562 257.222656 384.726562 L 262.261719 384.726562 L 262.261719 413.210938 Z M 277.988281 444.664062 C 274.546875 444.664062 271.742188 441.859375 271.742188 438.410156 L 271.742188 359.527344 C 271.742188 356.082031 274.546875 353.273438 277.988281 353.273438 L 285.375 353.273438 L 285.375 444.664062 Z M 326.859375 468.105469 C 326.859375 471.871094 323.800781 474.933594 320.042969 474.933594 L 301.671875 474.933594 C 297.914062 474.933594 294.855469 471.871094 294.855469 468.105469 L 294.855469 329.832031 C 294.855469 326.070312 297.914062 323.007812 301.671875 323.007812 L 320.042969 323.007812 C 323.800781 323.007812 326.859375 326.070312 326.859375 329.832031 Z M 336.34375 413.210938 L 336.34375 384.726562 L 451.90625 384.726562 L 451.90625 413.210938 Z M 493.394531 468.105469 C 493.394531 471.871094 490.335938 474.933594 486.578125 474.933594 L 468.207031 474.933594 C 464.449219 474.933594 461.390625 471.871094 461.390625 468.105469 L 461.390625 329.832031 C 461.390625 326.070312 464.449219 323.007812 468.207031 323.007812 L 486.578125 323.007812 C 490.335938 323.007812 493.394531 326.070312 493.394531 329.832031 Z M 516.507812 438.410156 C 516.507812 441.859375 513.703125 444.664062 510.261719 444.664062 L 502.875 444.664062 L 502.875 353.273438 L 510.261719 353.273438 C 513.703125 353.273438 516.507812 356.082031 516.507812 359.527344 Z M 535.769531 408.464844 C 535.769531 411.082031 533.640625 413.210938 531.027344 413.210938 L 525.988281 413.210938 L 525.988281 384.726562 L 531.027344 384.726562 C 533.640625 384.726562 535.769531 386.859375 535.769531 389.476562 Z M 535.769531 408.464844 " fill-opacity="1" fill-rule="nonzero"/></g></svg>