<svg xmlns="http://www.w3.org/2000/svg" xmlns:xlink="http://www.w3.org/1999/xlink" width="1080" zoomAndPan="magnify" viewBox="0 0 810 809.999993" height="1080" preserveAspectRatio="xMidYMid meet" version="1.0"><path fill="#8ccdb0" d="M 405 243 C 315.53125 243 243 315.53125 243 405 C 243 494.476562 315.53125 567 405 567 C 494.476562 567 567 494.476562 567 405 C 567 315.53125 494.476562 243 405 243 Z M 483.835938 309.648438 C 481.742188 317.261719 479.09375 320.484375 473.527344 320.472656 C 468.523438 320.460938 436.570312 318.292969 428.941406 318.269531 C 418.097656 318.230469 405.175781 319.664062 392.558594 321.089844 C 388.691406 337.222656 382.183594 356.847656 375.9375 381.171875 C 380.339844 380.601562 385.042969 380.03125 390.316406 380.054688 C 431.089844 380.175781 467.117188 398.195312 466.933594 450.105469 C 466.773438 497.925781 429.453125 520.367188 379.59375 520.222656 C 340.5625 520.089844 312.210938 492.726562 312.285156 473.359375 C 312.285156 469.835938 314.636719 468.085938 318.457031 468.097656 C 333.722656 468.160156 347.136719 491.949219 373.222656 492.046875 C 403.742188 492.144531 418.152344 475.476562 418.226562 452.582031 C 418.296875 430.578125 411.03125 407.980469 379.65625 407.871094 C 376.421875 407.859375 372.617188 408.144531 368.792969 408.132812 C 366.726562 411.050781 362.914062 412.515625 357.929688 412.5 C 351.785156 410.425781 344.15625 406.007812 342.433594 399.550781 C 345.132812 379.035156 351.980469 347.667969 362.011719 324.828125 C 355.894531 325.363281 350.613281 325.648438 346.507812 325.636719 C 344.15625 325.636719 342.695312 324.453125 342.695312 322.691406 C 342.742188 308.320312 375.660156 288.773438 423.761719 288.921875 C 445.460938 289 474.496094 289.964844 483.003906 289.988281 C 485.945312 289.988281 487.695312 291.171875 487.695312 295.578125 C 487.675781 297.929688 485 304.957031 483.835938 309.648438 Z M 483.835938 309.648438 " fill-opacity="1" fill-rule="nonzero"/></svg>