<svg xmlns="http://www.w3.org/2000/svg" xmlns:xlink="http://www.w3.org/1999/xlink" width="1080" zoomAndPan="magnify" viewBox="0 0 810 809.999993" height="1080" preserveAspectRatio="xMidYMid meet" version="1.0"><path fill="#8ccdb0" d="M 405 243 C 315.527344 243 243 315.527344 243 404.996094 C 243 494.472656 315.527344 566.992188 405 566.992188 C 494.464844 566.992188 567 494.472656 567 404.996094 C 567 315.527344 494.464844 243 405 243 Z M 493.710938 436.808594 C 490.335938 444.71875 486.058594 448.058594 476.921875 448.035156 C 472.0625 448.011719 458.644531 447.34375 445.839844 446.699219 C 442.101562 472.894531 439.570312 498.796875 439.523438 520.109375 C 439.5 526.8125 432.792969 528.625 427.304688 528.613281 C 401.710938 528.527344 394.125 519.367188 394.195312 495.90625 C 394.230469 484.316406 397.03125 466.355469 401.363281 446.261719 C 372.410156 447.984375 351.371094 452.800781 336.746094 453.355469 L 333.101562 453.355469 C 317.886719 445.996094 309.695312 437.734375 304.558594 424.613281 C 304.644531 398.714844 343.191406 347.953125 356.988281 324.238281 C 360.65625 317.84375 365.867188 309.941406 372.871094 309.964844 C 376.230469 309.976562 378.941406 315.46875 378.925781 321.265625 C 378.867188 337.410156 356.488281 380 348.4375 420.796875 C 362.484375 415.351562 384.417969 415.121094 408.476562 415.191406 C 418.359375 377.449219 430.96875 338.792969 439.867188 319.316406 C 444.484375 309.28125 453.03125 298.035156 463.386719 298.066406 C 466.148438 298.078125 467.351562 301.128906 467.324219 305.695312 C 467.277344 322.457031 458.285156 367.214844 450.53125 415.640625 C 479.472656 416.34375 499.882812 413.660156 499.859375 422.199219 C 499.859375 424.636719 495.5625 431.949219 493.710938 436.808594 Z M 493.710938 436.808594 " fill-opacity="1" fill-rule="nonzero"/></svg>