<svg xmlns="http://www.w3.org/2000/svg" xmlns:xlink="http://www.w3.org/1999/xlink" width="3000" zoomAndPan="magnify" viewBox="0 0 2250 2250.000011" height="3000" preserveAspectRatio="xMidYMid meet" version="1.0"><defs><g/><clipPath id="7c744eff9e"><path d="M 382.84375 925.640625 L 1867.183594 925.640625 L 1867.183594 1323.710938 L 382.84375 1323.710938 Z M 382.84375 925.640625 " clip-rule="nonzero"/></clipPath><clipPath id="02ae87cc12"><path d="M 382.84375 925.640625 L 1867.183594 925.640625 L 1867.183594 1323.710938 L 382.84375 1323.710938 Z M 382.84375 925.640625 " clip-rule="nonzero"/></clipPath><clipPath id="ce02a65074"><path d="M 448.066406 925.640625 L 1801.960938 925.640625 C 1837.984375 925.640625 1867.183594 954.863281 1867.183594 990.917969 L 1867.183594 1258.433594 C 1867.183594 1294.484375 1837.984375 1323.710938 1801.960938 1323.710938 L 448.066406 1323.710938 C 412.046875 1323.710938 382.84375 1294.484375 382.84375 1258.433594 L 382.84375 990.917969 C 382.84375 954.863281 412.046875 925.640625 448.066406 925.640625 " clip-rule="nonzero"/></clipPath></defs><g clip-path="url(#7c744eff9e)"><path fill="#03989e" d="M 448.066406 925.640625 L 1801.960938 925.640625 C 1837.984375 925.640625 1867.183594 954.863281 1867.183594 990.917969 L 1867.183594 1258.433594 C 1867.183594 1294.484375 1837.984375 1323.710938 1801.960938 1323.710938 L 448.066406 1323.710938 C 412.046875 1323.710938 382.84375 1294.484375 382.84375 1258.433594 L 382.84375 990.917969 C 382.84375 954.863281 412.046875 925.640625 448.066406 925.640625 " fill-opacity="1" fill-rule="nonzero"/></g><g clip-path="url(#02ae87cc12)"><g clip-path="url(#ce02a65074)"><path stroke-linecap="butt" transform="matrix(0.749685, 0, 0, 0.750329, 382.844153, 925.638919)" fill="none" stroke-linejoin="miter" d="M 86.999595 0.00227385 L 1892.951855 0.00227385 C 1941.003314 0.00227385 1979.951987 38.948723 1979.951987 87.000551 L 1979.951987 443.531578 C 1979.951987 491.5782 1941.003314 530.529855 1892.951855 530.529855 L 86.999595 530.529855 C 38.953346 530.529855 -0.00053766 491.5782 -0.00053766 443.531578 L -0.00053766 87.000551 C -0.00053766 38.948723 38.953346 0.00227385 86.999595 0.00227385 " stroke="#ffffff" stroke-width="8" stroke-opacity="1" stroke-miterlimit="4"/></g></g><g fill="#ffffff" fill-opacity="1"><g transform="translate(662.973551, 1176.027458)"><g><path d="M 5.65625 0 Z M 93.59375 -17.28125 L 93.59375 0 L 43.609375 0 C 34.265625 0 26.898438 -0.988281 21.515625 -2.96875 C 16.140625 -4.957031 12.148438 -8.566406 9.546875 -13.796875 C 6.953125 -19.035156 5.65625 -26.660156 5.65625 -36.671875 C 5.65625 -46.203125 6.882812 -53.492188 9.34375 -58.546875 C 11.800781 -63.597656 15.765625 -67.140625 21.234375 -69.171875 C 26.710938 -71.203125 34.40625 -72.21875 44.3125 -72.21875 C 49.601562 -72.21875 55.929688 -72.023438 63.296875 -71.640625 C 70.660156 -71.265625 75.851562 -70.84375 78.875 -70.375 L 78.875 -17.28125 Z M 24.640625 -36.671875 C 24.640625 -31.390625 25.320312 -27.351562 26.6875 -24.5625 C 28.0625 -21.78125 30.160156 -19.867188 32.984375 -18.828125 C 35.816406 -17.796875 39.691406 -17.28125 44.609375 -17.28125 L 59.890625 -17.28125 L 59.890625 -54.234375 C 55.171875 -54.703125 50.21875 -54.9375 45.03125 -54.9375 C 39.832031 -54.9375 35.796875 -54.414062 32.921875 -53.375 C 30.046875 -52.34375 27.945312 -50.523438 26.625 -47.921875 C 25.300781 -45.328125 24.640625 -41.578125 24.640625 -36.671875 Z M 27.65625 -101.6875 L 42.25 -101.6875 L 42.25 -83.984375 L 27.65625 -83.984375 Z M 49.1875 -101.6875 L 63.765625 -101.6875 L 63.765625 -83.984375 L 49.1875 -83.984375 Z M 49.1875 -101.6875 "/></g></g></g><g fill="#ffffff" fill-opacity="1"><g transform="translate(756.569209, 1176.027458)"><g><path d="M 0 0 Z M 40.078125 -70.796875 L 40.078125 0 L 0 0 L 0 -17.28125 L 21.09375 -17.28125 L 21.09375 -70.796875 Z M 12.734375 11.328125 L 27.328125 11.328125 L 27.328125 29.03125 L 12.734375 29.03125 Z M 34.265625 11.328125 L 48.84375 11.328125 L 48.84375 29.03125 L 34.265625 29.03125 Z M 34.265625 11.328125 "/></g></g></g><g fill="#ffffff" fill-opacity="1"><g transform="translate(806.551646, 1176.027458)"><g><path d="M 88.5 0 L 70.65625 0 C 68.582031 23.40625 58.765625 35.109375 41.203125 35.109375 C 36.109375 35.109375 27.894531 34.210938 16.5625 32.421875 L 16.5625 15.296875 C 27.894531 16.992188 35.539062 17.84375 39.5 17.84375 C 42.519531 17.84375 44.878906 17.320312 46.578125 16.28125 C 48.285156 15.238281 49.539062 13.441406 50.34375 10.890625 C 51.144531 8.347656 51.546875 4.71875 51.546875 0 L 35.109375 0 C 15.578125 0 5.8125 -11.046875 5.8125 -33.140625 C 5.8125 -44.367188 7.0625 -52.910156 9.5625 -58.765625 C 12.0625 -64.617188 15.597656 -68.554688 20.171875 -70.578125 C 24.753906 -72.609375 30.773438 -73.625 38.234375 -73.625 C 43.703125 -73.625 49.503906 -73.269531 55.640625 -72.5625 C 61.773438 -71.851562 66.921875 -71.03125 71.078125 -70.09375 L 71.078125 -17.28125 L 88.5 -17.28125 Z M 24.78125 -34.265625 C 24.78125 -29.453125 25.816406 -25.414062 27.890625 -22.15625 C 29.972656 -18.90625 34.128906 -17.28125 40.359375 -17.28125 L 52.109375 -17.28125 L 52.109375 -55.640625 C 48.515625 -56.117188 45.066406 -56.359375 41.765625 -56.359375 C 37.804688 -56.359375 34.644531 -55.8125 32.28125 -54.71875 C 29.925781 -53.632812 28.085938 -51.507812 26.765625 -48.34375 C 25.441406 -45.1875 24.78125 -40.492188 24.78125 -34.265625 Z M 24.78125 -34.265625 "/></g></g></g><g fill="#ffffff" fill-opacity="1"><g transform="translate(895.049823, 1176.027458)"><g><path d="M 0 0 Z M 121.90625 -17.28125 L 121.90625 0 L 0 0 L 0 -17.28125 L 18.6875 -17.28125 L 18.6875 -70.796875 L 37.65625 -70.796875 L 37.65625 -48.140625 C 41.90625 -53.429688 45.753906 -57.726562 49.203125 -61.03125 C 52.648438 -64.332031 56.6875 -67.019531 61.3125 -69.09375 C 65.9375 -71.175781 71.269531 -72.21875 77.3125 -72.21875 C 89.207031 -72.21875 97.628906 -68.554688 102.578125 -61.234375 C 107.535156 -53.921875 110.015625 -45.359375 110.015625 -35.546875 L 110.015625 -17.28125 Z M 72.921875 -54.9375 C 66.222656 -54.9375 59.6875 -51.796875 53.3125 -45.515625 C 46.9375 -39.242188 41.71875 -32 37.65625 -23.78125 L 37.65625 -17.28125 L 91.046875 -17.28125 L 91.046875 -31.859375 C 91.046875 -38.273438 89.460938 -43.722656 86.296875 -48.203125 C 83.140625 -52.691406 78.679688 -54.9375 72.921875 -54.9375 Z M 58.25 -102.6875 L 75.65625 -102.6875 L 75.65625 -84.28125 L 58.25 -84.28125 Z M 58.25 -102.6875 "/></g></g></g><g fill="#ffffff" fill-opacity="1"><g transform="translate(1016.964911, 1176.027458)"><g><path d="M 94.296875 -17.28125 L 94.296875 0 L 75.75 0 C 71.03125 0 66.238281 -0.539062 61.375 -1.625 C 56.519531 -2.707031 51.96875 -4.195312 47.71875 -6.09375 C 43.46875 -4.195312 38.957031 -2.707031 34.1875 -1.625 C 29.425781 -0.539062 24.875 0 20.53125 0 L 0 0 L 0 -17.28125 L 20.109375 -17.28125 C 23.035156 -17.28125 26.242188 -17.65625 29.734375 -18.40625 C 23.035156 -24.445312 17.960938 -29.78125 14.515625 -34.40625 C 11.066406 -39.03125 9.34375 -43.890625 9.34375 -48.984375 L 8.921875 -61.453125 C 13.359375 -64.285156 19.160156 -66.832031 26.328125 -69.09375 C 33.503906 -71.363281 40.585938 -72.5 47.578125 -72.5 C 54.460938 -72.5 61.5625 -71.363281 68.875 -69.09375 C 76.195312 -66.832031 82.171875 -64.285156 86.796875 -61.453125 L 86.234375 -48.984375 C 86.234375 -43.796875 84.507812 -38.9375 81.0625 -34.40625 C 77.613281 -29.875 72.539062 -24.539062 65.84375 -18.40625 C 69.332031 -17.65625 72.585938 -17.28125 75.609375 -17.28125 Z M 47.859375 -25.765625 C 54.847656 -30.109375 59.96875 -34.546875 63.21875 -39.078125 C 66.476562 -43.609375 68.109375 -47.8125 68.109375 -51.6875 C 61.117188 -54.039062 54.320312 -55.21875 47.71875 -55.21875 C 41.207031 -55.21875 34.550781 -54.039062 27.75 -51.6875 C 27.75 -47.71875 29.445312 -43.375 32.84375 -38.65625 C 36.25 -33.9375 41.253906 -29.640625 47.859375 -25.765625 Z M 47.859375 -25.765625 "/></g></g></g><g fill="#ffffff" fill-opacity="1"><g transform="translate(1111.268568, 1176.027458)"><g><path d="M 36.390625 -99.109375 L 36.390625 0 L 0 0 L 0 -17.28125 L 17.421875 -17.28125 L 17.421875 -99.109375 Z M 36.390625 -99.109375 "/></g></g></g><g fill="#ffffff" fill-opacity="1"><g transform="translate(1158.985518, 1176.027458)"><g><path d="M 11.328125 -99.109375 L 30.296875 -99.109375 L 30.296875 0 L 11.328125 0 Z M 11.328125 -99.109375 "/></g></g></g><g fill="#ffffff" fill-opacity="1"><g transform="translate(1202.029862, 1176.027458)"><g/></g></g><g fill="#ffffff" fill-opacity="1"><g transform="translate(1233.180384, 1176.027458)"><g><path d="M 5.65625 0 Z M 93.59375 -17.28125 L 93.59375 0 L 43.609375 0 C 34.265625 0 26.898438 -0.988281 21.515625 -2.96875 C 16.140625 -4.957031 12.148438 -8.566406 9.546875 -13.796875 C 6.953125 -19.035156 5.65625 -26.660156 5.65625 -36.671875 C 5.65625 -46.203125 6.882812 -53.492188 9.34375 -58.546875 C 11.800781 -63.597656 15.765625 -67.140625 21.234375 -69.171875 C 26.710938 -71.203125 34.40625 -72.21875 44.3125 -72.21875 C 49.601562 -72.21875 55.929688 -72.023438 63.296875 -71.640625 C 70.660156 -71.265625 75.851562 -70.84375 78.875 -70.375 L 78.875 -17.28125 Z M 24.640625 -36.671875 C 24.640625 -31.390625 25.320312 -27.351562 26.6875 -24.5625 C 28.0625 -21.78125 30.160156 -19.867188 32.984375 -18.828125 C 35.816406 -17.796875 39.691406 -17.28125 44.609375 -17.28125 L 59.890625 -17.28125 L 59.890625 -54.234375 C 55.171875 -54.703125 50.21875 -54.9375 45.03125 -54.9375 C 39.832031 -54.9375 35.796875 -54.414062 32.921875 -53.375 C 30.046875 -52.34375 27.945312 -50.523438 26.625 -47.921875 C 25.300781 -45.328125 24.640625 -41.578125 24.640625 -36.671875 Z M 27.65625 -101.6875 L 42.25 -101.6875 L 42.25 -83.984375 L 27.65625 -83.984375 Z M 49.1875 -101.6875 L 63.765625 -101.6875 L 63.765625 -83.984375 L 49.1875 -83.984375 Z M 49.1875 -101.6875 "/></g></g></g><g fill="#ffffff" fill-opacity="1"><g transform="translate(1326.776035, 1176.027458)"><g><path d="M 0 0 Z M 61.3125 -17.28125 L 61.3125 0 L 0 0 L 0 -17.28125 L 21.09375 -17.28125 L 21.09375 -70.796875 L 40.078125 -70.796875 L 40.078125 -17.28125 Z M 12.3125 11.328125 L 26.90625 11.328125 L 26.90625 29.03125 L 12.3125 29.03125 Z M 33.84375 11.328125 L 48.421875 11.328125 L 48.421875 29.03125 L 33.84375 29.03125 Z M 33.84375 11.328125 "/></g></g></g><g fill="#ffffff" fill-opacity="1"><g transform="translate(1388.087559, 1176.027458)"><g><path d="M 0 0 Z M 78.875 -68.8125 L 78.875 0 L 0 0 L 0 -17.28125 L 15.15625 -17.28125 C 13.550781 -23.03125 12.75 -29.539062 12.75 -36.8125 C 12.75 -45.40625 14.09375 -52.15625 16.78125 -57.0625 C 19.46875 -61.96875 23.546875 -65.457031 29.015625 -67.53125 C 34.492188 -69.613281 41.71875 -70.65625 50.6875 -70.65625 C 58.613281 -70.65625 65.550781 -70.328125 71.5 -69.671875 Z M 32 -33.28125 C 32 -29.6875 32.234375 -26.78125 32.703125 -24.5625 C 33.179688 -22.34375 33.84375 -19.914062 34.6875 -17.28125 L 59.890625 -17.28125 L 59.890625 -53.375 C 55.734375 -53.664062 52.476562 -53.8125 50.125 -53.8125 C 45.03125 -53.8125 41.226562 -53.242188 38.71875 -52.109375 C 36.21875 -50.972656 34.472656 -48.988281 33.484375 -46.15625 C 32.492188 -43.320312 32 -39.03125 32 -33.28125 Z M 29.65625 -101.6875 L 44.25 -101.6875 L 44.25 -83.984375 L 29.65625 -83.984375 Z M 51.1875 -101.6875 L 65.765625 -101.6875 L 65.765625 -83.984375 L 51.1875 -83.984375 Z M 51.1875 -101.6875 "/></g></g></g><g fill="#ffffff" fill-opacity="1"><g transform="translate(1474.034678, 1176.027458)"><g><path d="M 63.015625 0 L 39.640625 0 C 39.546875 11.132812 37.539062 19.769531 33.625 25.90625 C 29.707031 32.039062 23.832031 35.109375 16 35.109375 C 14.769531 35.109375 11.320312 34.921875 5.65625 34.546875 L 5.65625 17.5625 L 10.484375 17.84375 C 13.878906 17.84375 16.425781 16.492188 18.125 13.796875 C 19.820312 11.109375 20.671875 7.3125 20.671875 2.40625 L 20.671875 -70.796875 L 39.640625 -70.796875 L 39.640625 -17.28125 L 63.015625 -17.28125 Z M 63.015625 0 "/></g></g></g><g fill="#ffffff" fill-opacity="1"><g transform="translate(1537.045398, 1176.027458)"><g><path d="M 0 0 Z M 40.078125 -70.796875 L 40.078125 0 L 0 0 L 0 -17.28125 L 21.09375 -17.28125 L 21.09375 -70.796875 Z M 12.65625 -101.6875 L 27.25 -101.6875 L 27.25 -83.984375 L 12.65625 -83.984375 Z M 34.1875 -101.6875 L 48.765625 -101.6875 L 48.765625 -83.984375 L 34.1875 -83.984375 Z M 34.1875 -101.6875 "/></g></g></g></svg>