<svg xmlns="http://www.w3.org/2000/svg" xmlns:xlink="http://www.w3.org/1999/xlink" width="3000" zoomAndPan="magnify" viewBox="0 0 2250 2250.000011" height="3000" preserveAspectRatio="xMidYMid meet" version="1.0"><defs><g/><clipPath id="ffe50f5d83"><path d="M 157.945312 925.640625 L 2182.042969 925.640625 L 2182.042969 1361.195312 L 157.945312 1361.195312 Z M 157.945312 925.640625 " clip-rule="nonzero"/></clipPath><clipPath id="4f8478df66"><path d="M 157.957031 925.640625 L 2182.042969 925.640625 L 2182.042969 1361.195312 L 157.957031 1361.195312 Z M 157.957031 925.640625 " clip-rule="nonzero"/></clipPath><clipPath id="500d8cf0c7"><path d="M 223.179688 925.640625 L 2116.808594 925.640625 C 2152.832031 925.640625 2182.03125 954.828125 2182.03125 990.835938 L 2182.03125 1295.996094 C 2182.03125 1332.003906 2152.832031 1361.195312 2116.808594 1361.195312 L 223.179688 1361.195312 C 187.160156 1361.195312 157.957031 1332.003906 157.957031 1295.996094 L 157.957031 990.835938 C 157.957031 954.828125 187.160156 925.640625 223.179688 925.640625 " clip-rule="nonzero"/></clipPath><clipPath id="1c2c944191"><path d="M 379 1182 L 521 1182 L 521 1227.1875 L 379 1227.1875 Z M 379 1182 " clip-rule="nonzero"/></clipPath><clipPath id="8f63983def"><path d="M 354.355469 1074 L 374 1074 L 374 1094 L 354.355469 1094 Z M 354.355469 1074 " clip-rule="nonzero"/></clipPath><clipPath id="e929d3a4e6"><path d="M 441 1060.011719 L 460 1060.011719 L 460 1079 L 441 1079 Z M 441 1060.011719 " clip-rule="nonzero"/></clipPath></defs><g clip-path="url(#ffe50f5d83)"><path fill="#004aad" d="M 223.179688 925.640625 L 2116.808594 925.640625 C 2152.832031 925.640625 2182.03125 954.828125 2182.03125 990.835938 L 2182.03125 1296 C 2182.03125 1332.003906 2152.832031 1361.195312 2116.808594 1361.195312 L 223.179688 1361.195312 C 187.160156 1361.195312 157.957031 1332.003906 157.957031 1296 L 157.957031 990.835938 C 157.957031 954.828125 187.160156 925.640625 223.179688 925.640625 " fill-opacity="1" fill-rule="nonzero"/></g><g clip-path="url(#4f8478df66)"><g clip-path="url(#500d8cf0c7)"><path stroke-linecap="butt" transform="matrix(0.74968, 0, 0, 0.749405, 157.958086, 925.638751)" fill="none" stroke-linejoin="miter" d="M 86.999274 0.00250073 L 2612.916088 0.00250073 C 2660.96785 0.00250073 2699.916769 38.950075 2699.916769 86.998621 L 2699.916769 494.207186 C 2699.916769 542.25052 2660.96785 581.203307 2612.916088 581.203307 L 86.999274 581.203307 C 38.952722 581.203307 -0.00140682 542.25052 -0.00140682 494.207186 L -0.00140682 86.998621 C -0.00140682 38.950075 38.952722 0.00250073 86.999274 0.00250073 " stroke="#ffffff" stroke-width="8" stroke-opacity="1" stroke-miterlimit="4"/></g></g><g fill="#ffffff" fill-opacity="1"><g transform="translate(414.551461, 1217.259131)"><g/></g></g><g fill="#ffffff" fill-opacity="1"><g transform="translate(452.846841, 1217.259131)"><g/></g></g><g fill="#ffffff" fill-opacity="1"><g transform="translate(491.142221, 1217.259131)"><g/></g></g><g fill="#ffffff" fill-opacity="1"><g transform="translate(529.437599, 1217.259131)"><g/></g></g><g fill="#ffffff" fill-opacity="1"><g transform="translate(567.732982, 1217.259131)"><g/></g></g><g fill="#ffffff" fill-opacity="1"><g transform="translate(606.028365, 1217.259131)"><g/></g></g><g fill="#ffffff" fill-opacity="1"><g transform="translate(644.323736, 1217.259131)"><g/></g></g><g fill="#ffffff" fill-opacity="1"><g transform="translate(682.615902, 1217.259131)"><g><path d="M 8.0625 0 Z M 133.234375 -24.59375 L 133.234375 0 L 62.078125 0 C 48.773438 0 38.289062 -1.410156 30.625 -4.234375 C 22.96875 -7.054688 17.289062 -12.195312 13.59375 -19.65625 C 9.90625 -27.113281 8.0625 -37.960938 8.0625 -52.203125 C 8.0625 -65.773438 9.804688 -76.15625 13.296875 -83.34375 C 16.796875 -90.53125 22.441406 -95.566406 30.234375 -98.453125 C 38.023438 -101.347656 48.976562 -102.796875 63.09375 -102.796875 C 70.613281 -102.796875 79.613281 -102.523438 90.09375 -101.984375 C 100.570312 -101.453125 107.960938 -100.847656 112.265625 -100.171875 L 112.265625 -24.59375 Z M 35.078125 -52.203125 C 35.078125 -44.679688 36.050781 -38.9375 38 -34.96875 C 39.945312 -31.007812 42.9375 -28.289062 46.96875 -26.8125 C 51 -25.332031 56.503906 -24.59375 63.484375 -24.59375 L 85.265625 -24.59375 L 85.265625 -77.203125 C 78.546875 -77.867188 71.488281 -78.203125 64.09375 -78.203125 C 56.707031 -78.203125 50.960938 -77.460938 46.859375 -75.984375 C 42.765625 -74.503906 39.773438 -71.914062 37.890625 -68.21875 C 36.015625 -64.53125 35.078125 -59.191406 35.078125 -52.203125 Z M 40.0625 -144.90625 L 60.828125 -144.90625 L 60.828125 -119.703125 L 40.0625 -119.703125 Z M 70.703125 -144.90625 L 91.453125 -144.90625 L 91.453125 -119.703125 L 70.703125 -119.703125 Z M 70.703125 -144.90625 "/></g></g></g><g fill="#ffffff" fill-opacity="1"><g transform="translate(809.797322, 1217.259131)"><g><path d="M 0 0 Z M 57.046875 -100.78125 L 57.046875 0 L 0 0 L 0 -24.59375 L 30.03125 -24.59375 L 30.03125 -100.78125 Z M 18.140625 16.125 L 38.90625 16.125 L 38.90625 41.3125 L 18.140625 41.3125 Z M 48.78125 16.125 L 69.53125 16.125 L 69.53125 41.3125 L 48.78125 41.3125 Z M 48.78125 16.125 "/></g></g></g><g fill="#ffffff" fill-opacity="1"><g transform="translate(874.899572, 1217.259131)"><g><path d="M 125.96875 0 L 100.578125 0 C 97.617188 33.320312 83.644531 49.984375 58.65625 49.984375 C 51.394531 49.984375 39.703125 48.707031 23.578125 46.15625 L 23.578125 21.765625 C 39.703125 24.179688 50.585938 25.390625 56.234375 25.390625 C 60.535156 25.390625 63.894531 24.648438 66.3125 23.171875 C 68.726562 21.703125 70.507812 19.148438 71.65625 15.515625 C 72.800781 11.890625 73.375 6.71875 73.375 0 L 49.984375 0 C 22.171875 0 8.265625 -15.722656 8.265625 -47.171875 C 8.265625 -63.160156 10.046875 -75.316406 13.609375 -83.640625 C 17.171875 -91.972656 22.207031 -97.582031 28.71875 -100.46875 C 35.238281 -103.363281 43.804688 -104.8125 54.421875 -104.8125 C 62.210938 -104.8125 70.472656 -104.304688 79.203125 -103.296875 C 87.941406 -102.285156 95.269531 -101.109375 101.1875 -99.765625 L 101.1875 -24.59375 L 125.96875 -24.59375 Z M 35.265625 -48.78125 C 35.265625 -41.925781 36.742188 -36.179688 39.703125 -31.546875 C 42.660156 -26.910156 48.570312 -24.59375 57.4375 -24.59375 L 74.171875 -24.59375 L 74.171875 -79.21875 C 69.066406 -79.882812 64.160156 -80.21875 59.453125 -80.21875 C 53.816406 -80.21875 49.316406 -79.441406 45.953125 -77.890625 C 42.597656 -76.347656 39.976562 -73.328125 38.09375 -68.828125 C 36.207031 -64.328125 35.265625 -57.644531 35.265625 -48.78125 Z M 35.265625 -48.78125 "/></g></g></g><g fill="#ffffff" fill-opacity="1"><g transform="translate(994.825005, 1217.259131)"><g><path d="M 0 0 Z M 173.546875 -24.59375 L 173.546875 0 L 0 0 L 0 -24.59375 L 26.609375 -24.59375 L 26.609375 -100.78125 L 53.609375 -100.78125 L 53.609375 -68.53125 C 59.660156 -76.050781 65.140625 -82.160156 70.046875 -86.859375 C 74.953125 -91.566406 80.695312 -95.398438 87.28125 -98.359375 C 93.863281 -101.316406 101.453125 -102.796875 110.046875 -102.796875 C 126.984375 -102.796875 138.976562 -97.585938 146.03125 -87.171875 C 153.082031 -76.753906 156.609375 -64.5625 156.609375 -50.59375 L 156.609375 -24.59375 Z M 103.796875 -78.203125 C 94.265625 -78.203125 84.960938 -73.734375 75.890625 -64.796875 C 66.816406 -55.859375 59.390625 -45.546875 53.609375 -33.859375 L 53.609375 -24.59375 L 129.609375 -24.59375 L 129.609375 -45.34375 C 129.609375 -54.488281 127.351562 -62.25 122.84375 -68.625 C 118.34375 -75.007812 111.992188 -78.203125 103.796875 -78.203125 Z M 83.046875 -145.90625 L 107.84375 -145.90625 L 107.84375 -119.703125 L 83.046875 -119.703125 Z M 83.046875 -145.90625 "/></g></g></g><g fill="#ffffff" fill-opacity="1"><g transform="translate(1162.317537, 1217.259131)"><g><path d="M 134.234375 -24.59375 L 134.234375 0 L 107.828125 0 C 101.109375 0 94.289062 -0.769531 87.375 -2.3125 C 80.457031 -3.863281 73.972656 -5.984375 67.921875 -8.671875 C 61.878906 -5.984375 55.460938 -3.863281 48.671875 -2.3125 C 41.890625 -0.769531 35.40625 0 29.21875 0 L 0 0 L 0 -24.59375 L 28.625 -24.59375 C 32.789062 -24.59375 37.359375 -25.128906 42.328125 -26.203125 C 32.785156 -34.804688 25.5625 -42.398438 20.65625 -48.984375 C 15.75 -55.566406 13.296875 -62.484375 13.296875 -69.734375 L 12.703125 -87.484375 C 19.015625 -91.515625 27.273438 -95.140625 37.484375 -98.359375 C 47.703125 -101.585938 57.78125 -103.203125 67.71875 -103.203125 C 77.53125 -103.203125 87.644531 -101.585938 98.0625 -98.359375 C 108.476562 -95.140625 116.976562 -91.515625 123.5625 -87.484375 L 122.75 -69.734375 C 122.75 -62.347656 120.296875 -55.425781 115.390625 -48.96875 C 110.484375 -42.519531 103.257812 -34.929688 93.71875 -26.203125 C 98.695312 -25.128906 103.335938 -24.59375 107.640625 -24.59375 Z M 68.125 -36.6875 C 78.070312 -42.863281 85.363281 -49.175781 90 -55.625 C 94.632812 -62.082031 96.953125 -68.0625 96.953125 -73.5625 C 87.003906 -76.925781 77.328125 -78.609375 67.921875 -78.609375 C 58.648438 -78.609375 49.175781 -76.925781 39.5 -73.5625 C 39.5 -67.925781 41.914062 -61.75 46.75 -55.03125 C 51.59375 -48.3125 58.71875 -42.195312 68.125 -36.6875 Z M 68.125 -36.6875 "/></g></g></g><g fill="#ffffff" fill-opacity="1"><g transform="translate(1290.506712, 1217.259131)"><g><path d="M 51.796875 -141.09375 L 51.796875 0 L 0 0 L 0 -24.59375 L 24.796875 -24.59375 L 24.796875 -141.09375 Z M 51.796875 -141.09375 "/></g></g></g><g fill="#ffffff" fill-opacity="1"><g transform="translate(1352.384055, 1217.259131)"><g><path d="M 16.125 -141.09375 L 43.140625 -141.09375 L 43.140625 0 L 16.125 0 Z M 16.125 -141.09375 "/></g></g></g><g fill="#ffffff" fill-opacity="1"><g transform="translate(1407.610072, 1217.259131)"><g/></g></g><g fill="#ffffff" fill-opacity="1"><g transform="translate(1445.905444, 1217.259131)"><g><path d="M 8.0625 0 Z M 133.234375 -24.59375 L 133.234375 0 L 62.078125 0 C 48.773438 0 38.289062 -1.410156 30.625 -4.234375 C 22.96875 -7.054688 17.289062 -12.195312 13.59375 -19.65625 C 9.90625 -27.113281 8.0625 -37.960938 8.0625 -52.203125 C 8.0625 -65.773438 9.804688 -76.15625 13.296875 -83.34375 C 16.796875 -90.53125 22.441406 -95.566406 30.234375 -98.453125 C 38.023438 -101.347656 48.976562 -102.796875 63.09375 -102.796875 C 70.613281 -102.796875 79.613281 -102.523438 90.09375 -101.984375 C 100.570312 -101.453125 107.960938 -100.847656 112.265625 -100.171875 L 112.265625 -24.59375 Z M 35.078125 -52.203125 C 35.078125 -44.679688 36.050781 -38.9375 38 -34.96875 C 39.945312 -31.007812 42.9375 -28.289062 46.96875 -26.8125 C 51 -25.332031 56.503906 -24.59375 63.484375 -24.59375 L 85.265625 -24.59375 L 85.265625 -77.203125 C 78.546875 -77.867188 71.488281 -78.203125 64.09375 -78.203125 C 56.707031 -78.203125 50.960938 -77.460938 46.859375 -75.984375 C 42.765625 -74.503906 39.773438 -71.914062 37.890625 -68.21875 C 36.015625 -64.53125 35.078125 -59.191406 35.078125 -52.203125 Z M 40.0625 -144.90625 L 60.828125 -144.90625 L 60.828125 -119.703125 L 40.0625 -119.703125 Z M 70.703125 -144.90625 L 91.453125 -144.90625 L 91.453125 -119.703125 L 70.703125 -119.703125 Z M 70.703125 -144.90625 "/></g></g></g><g fill="#ffffff" fill-opacity="1"><g transform="translate(1573.086887, 1217.259131)"><g><path d="M 0 0 Z M 87.28125 -24.59375 L 87.28125 0 L 0 0 L 0 -24.59375 L 30.03125 -24.59375 L 30.03125 -100.78125 L 57.046875 -100.78125 L 57.046875 -24.59375 Z M 17.53125 16.125 L 38.296875 16.125 L 38.296875 41.3125 L 17.53125 41.3125 Z M 48.171875 16.125 L 68.921875 16.125 L 68.921875 41.3125 L 48.171875 41.3125 Z M 48.171875 16.125 "/></g></g></g><g fill="#ffffff" fill-opacity="1"><g transform="translate(1654.313631, 1217.259131)"><g><path d="M 0 0 Z M 112.265625 -97.953125 L 112.265625 0 L 0 0 L 0 -24.59375 L 21.5625 -24.59375 C 19.28125 -32.789062 18.140625 -42.0625 18.140625 -52.40625 C 18.140625 -64.632812 20.050781 -74.238281 23.875 -81.21875 C 27.707031 -88.207031 33.519531 -93.179688 41.3125 -96.140625 C 49.113281 -99.097656 59.394531 -100.578125 72.15625 -100.578125 C 83.445312 -100.578125 93.320312 -100.109375 101.78125 -99.171875 Z M 45.546875 -47.359375 C 45.546875 -42.253906 45.878906 -38.125 46.546875 -34.96875 C 47.222656 -31.8125 48.164062 -28.351562 49.375 -24.59375 L 85.265625 -24.59375 L 85.265625 -75.984375 C 79.347656 -76.390625 74.710938 -76.59375 71.359375 -76.59375 C 64.097656 -76.59375 58.6875 -75.785156 55.125 -74.171875 C 51.5625 -72.554688 49.070312 -69.734375 47.65625 -65.703125 C 46.25 -61.671875 45.546875 -55.554688 45.546875 -47.359375 Z M 41.0625 -144.90625 L 61.828125 -144.90625 L 61.828125 -119.703125 L 41.0625 -119.703125 Z M 71.703125 -144.90625 L 92.453125 -144.90625 L 92.453125 -119.703125 L 71.703125 -119.703125 Z M 71.703125 -144.90625 "/></g></g></g><g fill="#ffffff" fill-opacity="1"><g transform="translate(1770.610816, 1217.259131)"><g><path d="M 89.6875 0 L 56.4375 0 C 56.300781 15.851562 53.441406 28.144531 47.859375 36.875 C 42.285156 45.613281 33.925781 49.984375 22.78125 49.984375 C 21.03125 49.984375 16.125 49.71875 8.0625 49.1875 L 8.0625 25 L 14.921875 25.390625 C 19.753906 25.390625 23.378906 23.472656 25.796875 19.640625 C 28.210938 15.816406 29.421875 10.410156 29.421875 3.421875 L 29.421875 -100.78125 L 56.4375 -100.78125 L 56.4375 -24.59375 L 89.6875 -24.59375 Z M 89.6875 0 "/></g></g></g><g fill="#ffffff" fill-opacity="1"><g transform="translate(1854.256315, 1217.259131)"><g><path d="M 0 0 Z M 57.046875 -100.78125 L 57.046875 0 L 0 0 L 0 -24.59375 L 30.03125 -24.59375 L 30.03125 -100.78125 Z M 18.0625 -144.90625 L 38.828125 -144.90625 L 38.828125 -119.703125 L 18.0625 -119.703125 Z M 48.703125 -144.90625 L 69.453125 -144.90625 L 69.453125 -119.703125 L 48.703125 -119.703125 Z M 48.703125 -144.90625 "/></g></g></g><g clip-path="url(#1c2c944191)"><path fill="#ffffff" d="M 379.992188 1182.453125 L 520.835938 1182.453125 L 520.835938 1227.332031 L 379.992188 1227.332031 Z M 379.992188 1182.453125 " fill-opacity="1" fill-rule="nonzero"/></g><path fill="#ffffff" d="M 536.316406 1074.867188 C 535.722656 1074.875 535.132812 1074.941406 534.550781 1075.0625 C 533.96875 1075.1875 533.402344 1075.363281 532.855469 1075.597656 C 532.304688 1075.828125 531.785156 1076.109375 531.289062 1076.445312 C 530.796875 1076.777344 530.339844 1077.15625 529.917969 1077.578125 C 529.496094 1078 529.121094 1078.460938 528.789062 1078.957031 C 528.457031 1079.453125 528.175781 1079.972656 527.945312 1080.523438 C 527.714844 1081.074219 527.539062 1081.640625 527.417969 1082.226562 C 527.292969 1082.8125 527.230469 1083.402344 527.222656 1084 C 527.21875 1085.105469 527.417969 1086.175781 527.820312 1087.203125 C 528.226562 1088.234375 528.804688 1089.152344 529.5625 1089.960938 L 529.730469 1090.15625 C 530.390625 1090.957031 531.183594 1091.597656 532.105469 1092.074219 C 533.027344 1092.550781 534.003906 1092.824219 535.039062 1092.898438 C 535.078125 1092.898438 535.113281 1092.914062 535.152344 1092.917969 C 535.191406 1092.917969 535.238281 1092.917969 535.285156 1092.917969 C 535.53125 1092.949219 535.769531 1093 536.007812 1093.074219 C 536.078125 1093.089844 536.148438 1093.089844 536.214844 1093.109375 L 536.316406 1093.109375 C 536.933594 1093.136719 537.546875 1093.105469 538.15625 1093.011719 C 538.761719 1092.914062 539.355469 1092.757812 539.933594 1092.542969 C 540.511719 1092.328125 541.058594 1092.054688 541.582031 1091.726562 C 542.105469 1091.398438 542.589844 1091.023438 543.035156 1090.597656 C 543.480469 1090.171875 543.878906 1089.703125 544.230469 1089.195312 C 544.582031 1088.6875 544.878906 1088.152344 545.121094 1087.582031 C 545.363281 1087.015625 545.546875 1086.429688 545.671875 1085.824219 C 545.792969 1085.21875 545.855469 1084.605469 545.855469 1083.988281 C 545.855469 1083.371094 545.792969 1082.757812 545.671875 1082.15625 C 545.546875 1081.550781 545.363281 1080.960938 545.121094 1080.394531 C 544.878906 1079.828125 544.582031 1079.289062 544.230469 1078.78125 C 543.878906 1078.273438 543.480469 1077.808594 543.035156 1077.382812 C 542.589844 1076.953125 542.105469 1076.578125 541.582031 1076.25 C 541.058594 1075.921875 540.511719 1075.648438 539.933594 1075.433594 C 539.355469 1075.21875 538.761719 1075.0625 538.15625 1074.96875 C 537.546875 1074.871094 536.933594 1074.839844 536.316406 1074.867188 Z M 536.316406 1074.867188 " fill-opacity="1" fill-rule="nonzero"/><g clip-path="url(#8f63983def)"><path fill="#ffffff" d="M 364.417969 1074.867188 C 363.800781 1074.839844 363.191406 1074.871094 362.582031 1074.96875 C 361.972656 1075.0625 361.378906 1075.21875 360.800781 1075.433594 C 360.222656 1075.648438 359.675781 1075.921875 359.152344 1076.25 C 358.628906 1076.578125 358.144531 1076.953125 357.699219 1077.382812 C 357.253906 1077.808594 356.855469 1078.273438 356.503906 1078.78125 C 356.152344 1079.289062 355.855469 1079.828125 355.613281 1080.394531 C 355.371094 1080.960938 355.1875 1081.550781 355.066406 1082.15625 C 354.941406 1082.757812 354.878906 1083.371094 354.878906 1083.988281 C 354.878906 1084.605469 354.941406 1085.21875 355.066406 1085.824219 C 355.1875 1086.429688 355.371094 1087.015625 355.613281 1087.582031 C 355.855469 1088.152344 356.152344 1088.6875 356.503906 1089.195312 C 356.855469 1089.703125 357.253906 1090.171875 357.699219 1090.597656 C 358.144531 1091.023438 358.628906 1091.398438 359.152344 1091.726562 C 359.675781 1092.054688 360.222656 1092.328125 360.800781 1092.542969 C 361.378906 1092.757812 361.972656 1092.914062 362.582031 1093.011719 C 363.191406 1093.105469 363.800781 1093.136719 364.417969 1093.109375 L 364.523438 1093.109375 C 364.585938 1093.089844 364.652344 1093.089844 364.714844 1093.074219 C 364.953125 1093.003906 365.195312 1092.949219 365.4375 1092.917969 C 365.488281 1092.917969 365.535156 1092.917969 365.585938 1092.917969 C 365.636719 1092.917969 365.65625 1092.898438 365.695312 1092.898438 C 366.730469 1092.824219 367.710938 1092.550781 368.632812 1092.074219 C 369.554688 1091.597656 370.34375 1090.957031 371.003906 1090.15625 L 371.113281 1090.03125 L 371.171875 1089.960938 C 371.929688 1089.152344 372.511719 1088.234375 372.914062 1087.199219 C 373.320312 1086.167969 373.515625 1085.097656 373.507812 1083.988281 C 373.5 1083.394531 373.4375 1082.804688 373.316406 1082.21875 C 373.195312 1081.636719 373.015625 1081.070312 372.785156 1080.519531 C 372.554688 1079.96875 372.273438 1079.445312 371.941406 1078.953125 C 371.609375 1078.457031 371.234375 1078 370.8125 1077.578125 C 370.390625 1077.15625 369.933594 1076.777344 369.441406 1076.445312 C 368.949219 1076.109375 368.425781 1075.828125 367.878906 1075.59375 C 367.332031 1075.363281 366.765625 1075.1875 366.183594 1075.0625 C 365.601562 1074.941406 365.011719 1074.875 364.417969 1074.867188 Z M 364.417969 1074.867188 " fill-opacity="1" fill-rule="nonzero"/></g><path fill="#ffffff" d="M 495.960938 1126.289062 C 495.015625 1127.121094 493.917969 1127.535156 492.664062 1127.535156 C 492.511719 1127.535156 492.359375 1127.527344 492.207031 1127.511719 C 491.527344 1127.449219 490.882812 1127.257812 490.28125 1126.929688 C 489.679688 1126.605469 489.167969 1126.171875 488.742188 1125.636719 L 458.375 1087.257812 C 457.121094 1087.839844 455.824219 1088.277344 454.476562 1088.574219 C 453.132812 1088.867188 451.769531 1089.011719 450.390625 1089.003906 C 449.011719 1089 447.652344 1088.839844 446.308594 1088.535156 C 444.960938 1088.226562 443.667969 1087.777344 442.421875 1087.183594 L 411.992188 1125.636719 C 411.566406 1126.171875 411.054688 1126.605469 410.449219 1126.929688 C 409.847656 1127.257812 409.207031 1127.449219 408.527344 1127.511719 C 408.375 1127.527344 408.222656 1127.535156 408.070312 1127.535156 C 406.816406 1127.535156 405.714844 1127.121094 404.773438 1126.289062 L 374.882812 1100.003906 C 373.8125 1100.707031 372.679688 1101.289062 371.480469 1101.746094 L 379.5625 1172.414062 L 521.390625 1172.414062 L 529.265625 1101.753906 C 528.0625 1101.300781 526.925781 1100.71875 525.851562 1100.011719 Z M 495.960938 1126.289062 " fill-opacity="1" fill-rule="nonzero"/><g clip-path="url(#e929d3a4e6)"><path fill="#ffffff" d="M 441.269531 1069.851562 C 441.285156 1071.183594 441.574219 1072.449219 442.140625 1073.652344 C 442.707031 1074.855469 443.496094 1075.886719 444.507812 1076.742188 C 445.332031 1077.4375 446.246094 1077.976562 447.25 1078.359375 C 448.253906 1078.742188 449.296875 1078.949219 450.371094 1078.976562 C 451.425781 1078.996094 452.445312 1078.828125 453.4375 1078.460938 C 454.425781 1078.097656 455.316406 1077.5625 456.101562 1076.859375 C 456.191406 1076.777344 456.285156 1076.703125 456.375 1076.632812 C 457.421875 1075.820312 458.234375 1074.820312 458.820312 1073.632812 C 459.402344 1072.441406 459.695312 1071.183594 459.695312 1069.859375 C 459.695312 1069.25 459.636719 1068.652344 459.519531 1068.054688 C 459.402344 1067.460938 459.226562 1066.882812 458.996094 1066.324219 C 458.761719 1065.761719 458.480469 1065.230469 458.144531 1064.726562 C 457.808594 1064.222656 457.425781 1063.757812 456.996094 1063.328125 C 456.570312 1062.898438 456.105469 1062.515625 455.601562 1062.179688 C 455.097656 1061.84375 454.570312 1061.558594 454.011719 1061.324219 C 453.449219 1061.09375 452.875 1060.917969 452.28125 1060.800781 C 451.6875 1060.683594 451.089844 1060.621094 450.484375 1060.621094 C 449.878906 1060.621094 449.28125 1060.683594 448.6875 1060.800781 C 448.09375 1060.917969 447.519531 1061.09375 446.960938 1061.324219 C 446.402344 1061.558594 445.871094 1061.84375 445.367188 1062.179688 C 444.863281 1062.515625 444.398438 1062.898438 443.972656 1063.328125 C 443.542969 1063.757812 443.164062 1064.222656 442.828125 1064.726562 C 442.488281 1065.230469 442.207031 1065.761719 441.976562 1066.324219 C 441.742188 1066.882812 441.570312 1067.460938 441.449219 1068.054688 C 441.332031 1068.652344 441.273438 1069.25 441.273438 1069.859375 Z M 441.269531 1069.851562 " fill-opacity="1" fill-rule="nonzero"/></g></svg>