<svg xmlns="http://www.w3.org/2000/svg" xmlns:xlink="http://www.w3.org/1999/xlink" width="1080" zoomAndPan="magnify" viewBox="0 0 810 809.999993" height="1080" preserveAspectRatio="xMidYMid meet" version="1.0"><defs><clipPath id="id1"><path d="M 283.082031 244 L 526 244 L 526 567 L 283.082031 567 Z M 283.082031 244 " clip-rule="nonzero"/></clipPath></defs><g clip-path="url(#id1)"><path fill="#26bec9" d="M 494.378906 358.25 L 484.964844 358.25 C 486.023438 341.460938 487.035156 296.367188 461.121094 267.167969 C 447.246094 251.53125 428.367188 244.078125 405 244.078125 C 404.984375 244.078125 404.960938 244.078125 404.949219 244.078125 C 380.566406 244.078125 360.929688 251.8125 346.585938 267.964844 C 320.570312 297.273438 321.375 344.816406 322.382812 358.25 L 315.535156 358.25 C 298.089844 358.25 283.375 372.398438 283.375 389.847656 L 283.375 535.269531 C 283.375 552.722656 298.085938 566.445312 315.535156 566.445312 L 494.378906 566.445312 C 511.824219 566.445312 525.074219 552.722656 525.074219 535.269531 L 525.074219 389.847656 C 525.074219 372.398438 511.824219 358.25 494.378906 358.25 Z M 427.101562 516.074219 L 385.578125 516.074219 L 392.1875 469.710938 C 382.226562 464.917969 375.292969 454.511719 375.292969 442.710938 C 375.292969 426.316406 388.578125 412.867188 404.960938 412.867188 C 421.339844 412.867188 434.621094 426.074219 434.621094 442.464844 C 434.621094 453.46875 428.5625 463.582031 419.664062 468.695312 Z M 456.398438 358.25 L 350.949219 358.25 C 350.28125 351.535156 347.867188 308.53125 367.933594 286.011719 C 376.761719 276.105469 388.875 270.941406 404.96875 270.941406 C 404.984375 270.941406 404.988281 270.941406 405.003906 270.941406 C 420.058594 270.941406 431.4375 275.839844 439.785156 285.214844 C 459.753906 307.644531 457.085938 351.535156 456.398438 358.25 Z M 456.398438 358.25 " fill-opacity="1" fill-rule="nonzero"/></g></svg>