<svg xmlns="http://www.w3.org/2000/svg" xmlns:xlink="http://www.w3.org/1999/xlink" width="300" zoomAndPan="magnify" viewBox="0 0 224.87999 30.000001" height="40" preserveAspectRatio="xMidYMid meet" version="1.0"><defs><g/><clipPath id="id1"><path d="M 3.570312 0 L 221.195312 0 L 221.195312 29.03125 L 3.570312 29.03125 Z M 3.570312 0 " clip-rule="nonzero"/></clipPath></defs><g clip-path="url(#id1)"><path fill="#ffffff" d="M 3.570312 0 L 221.3125 0 L 221.3125 36.289062 L 3.570312 36.289062 Z M 3.570312 0 " fill-opacity="1" fill-rule="nonzero"/><path fill="#ffffff" d="M 3.570312 0 L 221.3125 0 L 221.3125 29.03125 L 3.570312 29.03125 Z M 3.570312 0 " fill-opacity="1" fill-rule="nonzero"/><path fill="#ffffff" d="M 3.570312 0 L 221.3125 0 L 221.3125 29.03125 L 3.570312 29.03125 Z M 3.570312 0 " fill-opacity="1" fill-rule="nonzero"/></g><path fill="#84b740" d="M 59.625 16.761719 L 72.847656 16.761719 L 72.847656 21.167969 L 59.625 21.167969 Z M 59.625 16.761719 " fill-opacity="1" fill-rule="nonzero"/><path fill="#259bd6" d="M 59.625 10.75 L 72.847656 10.75 L 72.847656 15.160156 L 59.625 15.160156 Z M 59.625 10.75 " fill-opacity="1" fill-rule="nonzero"/><path fill="#27292d" d="M 86.070312 20.269531 L 86.007812 20.28125 C 85.804688 20.324219 85.730469 20.339844 85.582031 20.339844 C 85.234375 20.339844 84.828125 20.160156 84.828125 19.328125 C 84.828125 18.902344 84.898438 18.332031 85.542969 18.332031 L 85.546875 18.332031 C 85.65625 18.339844 85.78125 18.351562 86.015625 18.421875 L 86.066406 18.4375 Z M 86.175781 16.121094 L 86.070312 16.140625 L 86.070312 17.679688 L 85.972656 17.652344 L 85.945312 17.644531 C 85.839844 17.613281 85.597656 17.542969 85.363281 17.542969 C 84.074219 17.542969 83.804688 18.515625 83.804688 19.332031 C 83.804688 20.453125 84.429688 21.09375 85.527344 21.09375 C 85.988281 21.09375 86.332031 21.046875 86.675781 20.933594 C 86.996094 20.832031 87.109375 20.6875 87.109375 20.378906 L 87.109375 15.960938 C 86.800781 16.015625 86.484375 16.070312 86.175781 16.121094 " fill-opacity="1" fill-rule="nonzero"/><path fill="#27292d" d="M 89.894531 20.296875 L 89.839844 20.3125 L 89.644531 20.367188 C 89.460938 20.414062 89.296875 20.441406 89.167969 20.441406 C 88.867188 20.441406 88.6875 20.289062 88.6875 20.035156 C 88.6875 19.871094 88.761719 19.59375 89.257812 19.59375 L 89.894531 19.59375 Z M 89.445312 17.523438 C 89.046875 17.523438 88.640625 17.59375 88.132812 17.75 L 87.804688 17.847656 L 87.914062 18.59375 L 88.234375 18.488281 C 88.574219 18.378906 88.992188 18.308594 89.308594 18.308594 C 89.449219 18.308594 89.878906 18.308594 89.878906 18.777344 L 89.878906 18.980469 L 89.28125 18.980469 C 88.183594 18.980469 87.679688 19.328125 87.679688 20.078125 C 87.679688 20.71875 88.144531 21.101562 88.929688 21.101562 C 89.175781 21.101562 89.511719 21.054688 89.800781 20.984375 L 89.816406 20.980469 L 89.832031 20.984375 L 89.929688 21 C 90.238281 21.054688 90.554688 21.109375 90.867188 21.171875 L 90.867188 18.71875 C 90.867188 17.925781 90.386719 17.523438 89.445312 17.523438 " fill-opacity="1" fill-rule="nonzero"/><path fill="#27292d" d="M 82.269531 20.296875 L 82.214844 20.3125 L 82.015625 20.367188 C 81.832031 20.414062 81.671875 20.441406 81.542969 20.441406 C 81.238281 20.441406 81.058594 20.289062 81.058594 20.035156 C 81.058594 19.871094 81.132812 19.59375 81.625 19.59375 L 82.265625 19.59375 L 82.265625 20.296875 Z M 81.820312 17.523438 C 81.421875 17.523438 81.015625 17.59375 80.507812 17.75 L 80.179688 17.847656 L 80.289062 18.59375 L 80.613281 18.488281 C 80.949219 18.378906 81.367188 18.308594 81.683594 18.308594 C 81.824219 18.308594 82.257812 18.308594 82.257812 18.777344 L 82.257812 18.980469 L 81.65625 18.980469 C 80.558594 18.980469 80.050781 19.328125 80.050781 20.078125 C 80.050781 20.71875 80.515625 21.101562 81.304688 21.101562 C 81.550781 21.101562 81.886719 21.054688 82.179688 20.984375 L 82.195312 20.980469 L 82.210938 20.984375 L 82.304688 21 C 82.613281 21.054688 82.925781 21.109375 83.238281 21.175781 L 83.238281 18.722656 C 83.242188 17.921875 82.761719 17.523438 81.820312 17.523438 " fill-opacity="1" fill-rule="nonzero"/><path fill="#27292d" d="M 78.132812 17.53125 C 77.636719 17.53125 77.222656 17.695312 77.070312 17.765625 L 77.03125 17.785156 L 76.996094 17.757812 C 76.785156 17.605469 76.472656 17.527344 76.042969 17.527344 C 75.660156 17.527344 75.304688 17.582031 74.914062 17.695312 C 74.582031 17.796875 74.453125 17.957031 74.453125 18.261719 L 74.453125 21.058594 L 75.496094 21.058594 L 75.496094 18.472656 L 75.546875 18.457031 C 75.757812 18.386719 75.886719 18.375 76.007812 18.375 C 76.308594 18.375 76.460938 18.535156 76.460938 18.851562 L 76.460938 21.0625 L 77.492188 21.0625 L 77.492188 18.808594 C 77.492188 18.671875 77.464844 18.59375 77.460938 18.578125 L 77.421875 18.511719 L 77.496094 18.480469 C 77.652344 18.410156 77.824219 18.375 78.003906 18.375 C 78.210938 18.375 78.460938 18.457031 78.460938 18.851562 L 78.460938 21.0625 L 79.484375 21.0625 L 79.484375 18.746094 C 79.484375 17.925781 79.046875 17.53125 78.132812 17.53125 " fill-opacity="1" fill-rule="nonzero"/><path fill="#27292d" d="M 89.125 13.625 C 88.972656 13.625 88.71875 13.609375 88.519531 13.570312 L 88.460938 13.558594 L 88.460938 12.046875 C 88.460938 11.921875 88.4375 11.84375 88.433594 11.832031 L 88.398438 11.769531 L 88.46875 11.738281 C 88.484375 11.730469 88.5 11.726562 88.519531 11.71875 L 88.53125 11.710938 C 88.554688 11.703125 88.578125 11.695312 88.601562 11.6875 C 88.613281 11.683594 88.621094 11.679688 88.628906 11.679688 C 88.859375 11.617188 89.070312 11.625 89.164062 11.617188 L 89.171875 11.617188 C 89.808594 11.617188 89.882812 12.1875 89.882812 12.617188 C 89.878906 13.449219 89.46875 13.625 89.125 13.625 M 89.121094 10.75 C 89.113281 10.75 89.101562 10.75 89.09375 10.75 C 88.496094 10.75 87.878906 10.914062 87.660156 11.238281 C 87.539062 11.394531 87.472656 11.589844 87.46875 11.824219 L 87.46875 13.382812 C 87.46875 13.515625 87.441406 13.566406 87.4375 13.578125 L 87.402344 13.644531 L 85.507812 13.644531 L 85.507812 12.5625 L 85.503906 12.5625 C 85.480469 11.417969 84.804688 10.789062 83.828125 10.789062 L 82.871094 10.789062 C 82.832031 11.070312 82.800781 11.265625 82.761719 11.542969 L 83.710938 11.542969 C 84.210938 11.542969 84.472656 11.96875 84.472656 12.621094 L 84.472656 13.710938 L 84.40625 13.675781 C 84.394531 13.671875 84.3125 13.644531 84.183594 13.644531 L 82.542969 13.644531 C 82.511719 13.851562 82.472656 14.125 82.429688 14.394531 L 87.472656 14.394531 C 87.648438 14.359375 87.847656 14.328125 88.019531 14.300781 C 88.273438 14.425781 88.75 14.492188 89.074219 14.492188 C 90.171875 14.492188 90.882812 13.757812 90.882812 12.628906 C 90.878906 11.507812 90.191406 10.773438 89.121094 10.75 " fill-opacity="1" fill-rule="nonzero"/><path fill="#27292d" d="M 80.277344 14.855469 L 80.324219 14.855469 C 81.421875 14.855469 81.929688 14.492188 81.929688 13.601562 C 81.929688 12.960938 81.464844 12.449219 80.679688 12.449219 L 79.667969 12.449219 C 79.367188 12.449219 79.1875 12.277344 79.1875 11.988281 C 79.1875 11.792969 79.261719 11.546875 79.753906 11.546875 L 81.960938 11.546875 C 82.007812 11.261719 82.03125 11.082031 82.074219 10.792969 L 79.78125 10.792969 C 78.714844 10.792969 78.175781 11.242188 78.175781 11.988281 C 78.175781 12.726562 78.644531 13.109375 79.429688 13.109375 L 80.4375 13.109375 C 80.742188 13.109375 80.921875 13.351562 80.921875 13.601562 C 80.921875 13.765625 80.847656 14.109375 80.355469 14.109375 L 80.1875 14.109375 L 76.957031 14.101562 L 76.367188 14.101562 C 75.867188 14.101562 75.519531 13.816406 75.519531 13.160156 L 75.519531 12.710938 C 75.519531 12.027344 75.789062 11.601562 76.367188 11.601562 L 77.324219 11.601562 C 77.367188 11.3125 77.394531 11.128906 77.433594 10.851562 L 76.128906 10.851562 C 75.152344 10.851562 74.476562 11.507812 74.453125 12.652344 L 74.453125 13.160156 C 74.476562 14.304688 75.152344 14.851562 76.128906 14.851562 L 77.082031 14.851562 L 78.832031 14.855469 Z M 80.277344 14.855469 " fill-opacity="1" fill-rule="nonzero"/><g fill="#000000" fill-opacity="1"><g transform="translate(112.43999, 14.879034)"><g/></g></g><g fill="#000000" fill-opacity="1"><g transform="translate(97.017745, 17.975809)"><g/></g></g><g fill="#000000" fill-opacity="1"><g transform="translate(99.626112, 17.975809)"><g><path d="M 3.625 -6.078125 C 4.59375 -6.078125 5.304688 -5.835938 5.765625 -5.359375 C 6.234375 -4.878906 6.46875 -4.082031 6.46875 -2.96875 L 6.46875 0 L 2.625 0 C 1.75 0 1.3125 0.539062 1.3125 1.625 C 1.3125 2.125 1.414062 2.875 1.625 3.875 L 0.859375 3.890625 C 0.609375 2.742188 0.484375 1.878906 0.484375 1.296875 C 0.484375 0.710938 0.582031 0.265625 0.78125 -0.046875 C 0.976562 -0.359375 1.226562 -0.570312 1.53125 -0.6875 C 1.394531 -1.351562 1.328125 -2.09375 1.328125 -2.90625 C 1.328125 -3.4375 1.359375 -3.960938 1.421875 -4.484375 C 1.492188 -5.003906 1.566406 -5.425781 1.640625 -5.75 C 1.828125 -5.832031 2.101562 -5.90625 2.46875 -5.96875 C 2.84375 -6.039062 3.226562 -6.078125 3.625 -6.078125 Z M 5.546875 -0.828125 L 5.546875 -2.984375 C 5.546875 -3.796875 5.375 -4.375 5.03125 -4.71875 C 4.695312 -5.070312 4.179688 -5.25 3.484375 -5.25 C 3.085938 -5.25 2.738281 -5.207031 2.4375 -5.125 C 2.3125 -4.4375 2.25 -3.695312 2.25 -2.90625 C 2.25 -2.519531 2.265625 -2.132812 2.296875 -1.75 C 2.335938 -1.363281 2.378906 -1.054688 2.421875 -0.828125 Z M 5.546875 -0.828125 "/></g></g></g><g fill="#000000" fill-opacity="1"><g transform="translate(106.799631, 17.975809)"><g><path d="M 1.078125 -8.546875 L 1.984375 -8.546875 L 1.984375 0 L 1.078125 0 Z M 1.078125 -8.546875 "/></g></g></g><g fill="#000000" fill-opacity="1"><g transform="translate(109.856997, 17.975809)"><g><path d="M 6.375 -0.828125 L 6.375 0 L 0.46875 0 L 0.46875 -0.828125 L 4.34375 -0.828125 L 4.34375 -2.203125 C 4.34375 -3.378906 4.113281 -4.203125 3.65625 -4.671875 C 3.195312 -5.140625 2.664062 -5.375 2.0625 -5.375 L 1.09375 -5.375 L 1.03125 -6.0625 C 1.113281 -6.09375 1.273438 -6.125 1.515625 -6.15625 C 1.753906 -6.1875 1.988281 -6.203125 2.21875 -6.203125 C 3.082031 -6.203125 3.804688 -5.890625 4.390625 -5.265625 C 4.972656 -4.640625 5.265625 -3.625 5.265625 -2.21875 L 5.265625 -0.828125 Z M 6.375 -0.828125 "/></g></g></g><g fill="#000000" fill-opacity="1"><g transform="translate(116.237119, 17.975809)"><g><path d="M 0 0 Z M 7.046875 -0.828125 L 7.046875 0 L 0 0 L 0 -0.828125 L 4.78125 -0.828125 L 4.78125 -4.046875 C 4.78125 -4.441406 4.675781 -4.738281 4.46875 -4.9375 C 4.257812 -5.144531 3.945312 -5.25 3.53125 -5.25 C 3.175781 -5.25 2.472656 -5.1875 1.421875 -5.0625 L 1.078125 -5.03125 L 1.046875 -5.703125 C 2.242188 -5.953125 3.140625 -6.078125 3.734375 -6.078125 C 5.035156 -6.078125 5.6875 -5.394531 5.6875 -4.03125 L 5.6875 -0.828125 Z M 3.515625 -7.953125 L 4.421875 -7.953125 L 4.421875 -6.953125 L 3.515625 -6.953125 Z M 3.515625 -7.953125 "/></g></g></g><g fill="#000000" fill-opacity="1"><g transform="translate(123.28383, 17.975809)"><g><path d="M 0 0 Z M 4.46875 -0.828125 L 4.46875 0 L 0 0 L 0 -0.828125 L 1.78125 -0.828125 L 1.78125 -5.953125 L 2.6875 -5.953125 L 2.6875 -0.828125 Z M 0.546875 -7.953125 L 1.453125 -7.953125 L 1.453125 -6.953125 L 0.546875 -6.953125 Z M 2.03125 -7.953125 L 2.9375 -7.953125 L 2.9375 -6.953125 L 2.03125 -6.953125 Z M 2.03125 -7.953125 "/></g></g></g><g fill="#000000" fill-opacity="1"><g transform="translate(127.747535, 17.975809)"><g><path d="M 8.59375 -5.953125 C 8.695312 -5.503906 8.785156 -5.023438 8.859375 -4.515625 C 8.941406 -4.003906 8.984375 -3.601562 8.984375 -3.3125 L 8.984375 0 L 6.765625 0 C 6.273438 0 5.832031 -0.164062 5.4375 -0.5 C 5.15625 -0.164062 4.78125 0 4.3125 0 L 0 0 L 0 -0.828125 L 1.921875 -0.828125 L 1.921875 -5.359375 L 2.84375 -5.359375 L 2.84375 -0.828125 L 4.03125 -0.828125 C 4.394531 -0.828125 4.65625 -0.984375 4.8125 -1.296875 C 4.976562 -1.609375 5.0625 -2 5.0625 -2.46875 L 5.0625 -5.359375 L 5.984375 -5.359375 L 5.984375 -2.484375 C 5.984375 -2.003906 5.925781 -1.582031 5.8125 -1.21875 C 5.925781 -1.125 6.070312 -1.035156 6.25 -0.953125 C 6.4375 -0.867188 6.625 -0.828125 6.8125 -0.828125 L 8.0625 -0.828125 L 8.0625 -3.40625 C 8.0625 -3.707031 8.035156 -4.085938 7.984375 -4.546875 C 7.941406 -5.003906 7.894531 -5.460938 7.84375 -5.921875 Z M 8.59375 -5.953125 "/></g></g></g><g fill="#000000" fill-opacity="1"><g transform="translate(137.550152, 17.975809)"><g><path d="M 3.109375 -0.828125 L 3.109375 0 L 1.078125 0 L 1.078125 -8.546875 L 1.984375 -8.546875 L 1.984375 -0.828125 Z M 3.109375 -0.828125 "/></g></g></g><g fill="#000000" fill-opacity="1"><g transform="translate(140.656891, 17.975809)"><g><path d="M 0 0 Z M 2.6875 -5.953125 L 2.6875 0 L 0 0 L 0 -0.828125 L 1.78125 -0.828125 L 1.78125 -5.953125 Z M 1.78125 0.953125 L 2.6875 0.953125 L 2.6875 1.953125 L 1.78125 1.953125 Z M 1.78125 0.953125 "/></g></g></g><g fill="#000000" fill-opacity="1"><g transform="translate(144.297187, 17.975809)"><g/></g></g><g fill="#000000" fill-opacity="1"><g transform="translate(146.914391, 17.975809)"><g><path d="M 3.28125 -0.46875 C 2.769531 -0.457031 2.382812 -0.320312 2.125 -0.0625 C 1.863281 0.1875 1.734375 0.582031 1.734375 1.125 C 1.734375 2.34375 2.394531 2.953125 3.71875 2.953125 C 4.289062 2.953125 5.023438 2.863281 5.921875 2.6875 L 6.03125 3.421875 L 5.640625 3.5 C 4.828125 3.675781 4.125 3.765625 3.53125 3.765625 C 2.632812 3.765625 1.953125 3.53125 1.484375 3.0625 C 1.023438 2.601562 0.796875 1.9375 0.796875 1.0625 C 0.796875 0.40625 0.929688 -0.101562 1.203125 -0.46875 C 1.472656 -0.84375 1.878906 -1.09375 2.421875 -1.21875 C 1.847656 -1.6875 1.390625 -2.222656 1.046875 -2.828125 C 0.703125 -3.429688 0.523438 -3.960938 0.515625 -4.421875 L 0.46875 -5.28125 C 1.488281 -5.8125 2.472656 -6.078125 3.421875 -6.078125 C 4.359375 -6.078125 5.34375 -5.8125 6.375 -5.28125 L 6.34375 -4.421875 C 6.332031 -4.117188 6.242188 -3.769531 6.078125 -3.375 C 5.921875 -2.976562 5.6875 -2.578125 5.375 -2.171875 C 5.070312 -1.773438 4.710938 -1.421875 4.296875 -1.109375 C 4.785156 -0.921875 5.273438 -0.828125 5.765625 -0.828125 L 7.03125 -0.828125 L 7.03125 0 L 5.765625 0 C 5.367188 0 4.960938 -0.046875 4.546875 -0.140625 C 4.140625 -0.234375 3.765625 -0.367188 3.421875 -0.546875 Z M 1.421875 -4.8125 C 1.421875 -4.164062 1.601562 -3.554688 1.96875 -2.984375 C 2.34375 -2.421875 2.828125 -1.941406 3.421875 -1.546875 C 4.035156 -1.941406 4.523438 -2.421875 4.890625 -2.984375 C 5.265625 -3.554688 5.453125 -4.164062 5.453125 -4.8125 C 4.671875 -5.101562 3.992188 -5.25 3.421875 -5.25 C 2.878906 -5.25 2.210938 -5.101562 1.421875 -4.8125 Z M 1.421875 -4.8125 "/></g></g></g><g fill="#000000" fill-opacity="1"><g transform="translate(153.937291, 17.975809)"><g><path d="M 0 0 Z M 6.171875 -5.828125 L 6.171875 0 L 0 0 L 0 -0.828125 L 1.6875 -0.828125 C 1.476562 -1.242188 1.375 -1.910156 1.375 -2.828125 C 1.375 -3.648438 1.457031 -4.28125 1.625 -4.71875 C 1.789062 -5.164062 2.070312 -5.476562 2.46875 -5.65625 C 2.875 -5.84375 3.445312 -5.9375 4.1875 -5.9375 C 4.789062 -5.9375 5.335938 -5.910156 5.828125 -5.859375 Z M 2.28125 -2.859375 C 2.28125 -1.847656 2.425781 -1.171875 2.71875 -0.828125 L 5.25 -0.828125 L 5.25 -5.09375 C 4.707031 -5.132812 4.328125 -5.15625 4.109375 -5.15625 C 3.609375 -5.15625 3.226562 -5.078125 2.96875 -4.921875 C 2.707031 -4.773438 2.523438 -4.539062 2.421875 -4.21875 C 2.328125 -3.894531 2.28125 -3.441406 2.28125 -2.859375 Z M 3.515625 -7.953125 L 4.421875 -7.953125 L 4.421875 -6.953125 L 3.515625 -6.953125 Z M 3.515625 -7.953125 "/></g></g></g><g fill="#000000" fill-opacity="1"><g transform="translate(160.813392, 17.975809)"><g><path d="M 2.21875 -6.203125 C 3.082031 -6.203125 3.804688 -5.890625 4.390625 -5.265625 C 4.972656 -4.640625 5.265625 -3.625 5.265625 -2.21875 L 5.265625 0 L 0.46875 0 L 0.46875 -0.828125 L 4.34375 -0.828125 L 4.34375 -2.203125 C 4.34375 -3.378906 4.113281 -4.203125 3.65625 -4.671875 C 3.195312 -5.140625 2.664062 -5.375 2.0625 -5.375 L 1.09375 -5.375 L 1.03125 -6.0625 C 1.113281 -6.09375 1.273438 -6.125 1.515625 -6.15625 C 1.753906 -6.1875 1.988281 -6.203125 2.21875 -6.203125 Z M 2.21875 -6.203125 "/></g></g></g></svg>