<svg xmlns="http://www.w3.org/2000/svg" xmlns:xlink="http://www.w3.org/1999/xlink" width="1080" zoomAndPan="magnify" viewBox="0 0 810 809.999993" height="1080" preserveAspectRatio="xMidYMid meet" version="1.0"><defs><clipPath id="id1"><path d="M 243 243 L 567 243 L 567 567 L 243 567 Z M 243 243 " clip-rule="nonzero"/></clipPath></defs><g clip-path="url(#id1)"><path fill="#5e17eb" d="M 405 243.003906 C 315.53125 243.003906 243 315.535156 243 405.003906 C 243 494.464844 315.53125 567.003906 405 567.003906 C 494.476562 567.003906 567 494.464844 567 405.003906 C 567 315.535156 494.476562 243.003906 405 243.003906 Z M 468.464844 494.554688 C 466.121094 502.050781 462.960938 505.210938 456.023438 505.195312 C 449.667969 505.171875 404.960938 502.996094 395.730469 502.953125 C 364.28125 502.855469 342.890625 510.289062 329.332031 510.265625 C 327.589844 510.242188 326.460938 509.101562 326.460938 507.359375 C 326.507812 494.101562 349.9375 475.699219 384.558594 474.371094 L 384.585938 469.753906 C 384.6875 438.601562 403.675781 367.09375 418.808594 326.449219 L 408.410156 329.023438 C 386.164062 335.292969 371.710938 349.386719 363.046875 349.363281 C 360.730469 349.363281 360.460938 344.734375 360.460938 342.421875 C 360.519531 323.382812 377.316406 307.84375 395.808594 302.429688 C 410.222656 298.15625 436.234375 289.011719 450.082031 289.046875 C 452.683594 289.046875 459.597656 296.863281 459.558594 304.648438 C 459.488281 330.039062 432.953125 410.460938 428.140625 474.515625 C 457.273438 475.195312 473.15625 472.351562 473.132812 480.734375 C 473.117188 483.046875 469.910156 489.949219 468.464844 494.554688 Z M 468.464844 494.554688 " fill-opacity="1" fill-rule="nonzero"/></g></svg>