<svg xmlns="http://www.w3.org/2000/svg" xmlns:xlink="http://www.w3.org/1999/xlink" width="1080" zoomAndPan="magnify" viewBox="0 0 810 809.999993" height="1080" preserveAspectRatio="xMidYMid meet" version="1.0"><defs><clipPath id="id1"><path d="M 244 300.914062 L 566 300.914062 L 566 509.414062 L 244 509.414062 Z M 244 300.914062 " clip-rule="nonzero"/></clipPath></defs><g clip-path="url(#id1)"><path fill="#231f20" d="M 536.578125 300.917969 L 273.515625 300.917969 C 272.582031 300.921875 271.648438 300.96875 270.714844 301.058594 C 269.785156 301.152344 268.859375 301.292969 267.941406 301.476562 C 267.023438 301.660156 266.117188 301.886719 265.21875 302.160156 C 264.324219 302.433594 263.445312 302.75 262.582031 303.109375 C 261.714844 303.46875 260.871094 303.867188 260.042969 304.3125 C 259.21875 304.753906 258.417969 305.234375 257.640625 305.757812 C 256.859375 306.277344 256.109375 306.835938 255.386719 307.429688 C 254.664062 308.027344 253.96875 308.65625 253.308594 309.316406 C 252.644531 309.980469 252.019531 310.675781 251.425781 311.398438 C 250.832031 312.125 250.273438 312.875 249.753906 313.65625 C 249.234375 314.433594 248.75 315.238281 248.308594 316.066406 C 247.867188 316.890625 247.46875 317.738281 247.109375 318.605469 C 246.75 319.472656 246.433594 320.351562 246.164062 321.25 C 245.890625 322.148438 245.664062 323.054688 245.480469 323.972656 C 245.296875 324.894531 245.15625 325.820312 245.0625 326.753906 C 244.972656 327.6875 244.925781 328.621094 244.921875 329.558594 L 244.921875 480.769531 C 244.925781 481.707031 244.972656 482.644531 245.0625 483.578125 C 245.15625 484.507812 245.296875 485.4375 245.480469 486.355469 C 245.660156 487.273438 245.890625 488.183594 246.164062 489.082031 C 246.433594 489.976562 246.75 490.859375 247.109375 491.726562 C 247.46875 492.589844 247.867188 493.4375 248.308594 494.265625 C 248.75 495.089844 249.234375 495.894531 249.753906 496.675781 C 250.273438 497.453125 250.832031 498.207031 251.425781 498.929688 C 252.019531 499.65625 252.644531 500.347656 253.308594 501.011719 C 253.96875 501.675781 254.664062 502.304688 255.386719 502.898438 C 256.109375 503.496094 256.859375 504.050781 257.640625 504.574219 C 258.417969 505.09375 259.21875 505.578125 260.042969 506.019531 C 260.871094 506.460938 261.714844 506.863281 262.582031 507.222656 C 263.445312 507.582031 264.324219 507.898438 265.21875 508.167969 C 266.117188 508.441406 267.023438 508.671875 267.941406 508.855469 C 268.859375 509.039062 269.785156 509.175781 270.714844 509.269531 C 271.648438 509.363281 272.582031 509.410156 273.515625 509.410156 L 536.578125 509.410156 C 537.511719 509.410156 538.445312 509.363281 539.378906 509.269531 C 540.308594 509.175781 541.234375 509.039062 542.152344 508.855469 C 543.070312 508.671875 543.976562 508.441406 544.875 508.167969 C 545.769531 507.898438 546.648438 507.582031 547.511719 507.222656 C 548.378906 506.863281 549.222656 506.460938 550.046875 506.019531 C 550.875 505.578125 551.675781 505.09375 552.453125 504.574219 C 553.234375 504.050781 553.984375 503.496094 554.707031 502.898438 C 555.429688 502.304688 556.125 501.675781 556.785156 501.011719 C 557.449219 500.347656 558.074219 499.65625 558.667969 498.929688 C 559.261719 498.207031 559.820312 497.453125 560.339844 496.675781 C 560.859375 495.894531 561.34375 495.089844 561.785156 494.265625 C 562.226562 493.4375 562.625 492.589844 562.984375 491.726562 C 563.34375 490.859375 563.660156 489.976562 563.929688 489.082031 C 564.203125 488.183594 564.429688 487.273438 564.613281 486.355469 C 564.796875 485.4375 564.9375 484.507812 565.027344 483.578125 C 565.121094 482.644531 565.167969 481.707031 565.171875 480.769531 L 565.171875 329.558594 C 565.167969 328.621094 565.121094 327.6875 565.03125 326.753906 C 564.9375 325.820312 564.796875 324.894531 564.613281 323.972656 C 564.429688 323.054688 564.203125 322.148438 563.929688 321.25 C 563.660156 320.351562 563.34375 319.472656 562.984375 318.605469 C 562.625 317.738281 562.226562 316.890625 561.785156 316.066406 C 561.34375 315.238281 560.859375 314.433594 560.339844 313.65625 C 559.820312 312.875 559.261719 312.125 558.667969 311.398438 C 558.074219 310.675781 557.449219 309.980469 556.785156 309.316406 C 556.125 308.65625 555.429688 308.027344 554.707031 307.429688 C 553.984375 306.835938 553.234375 306.277344 552.453125 305.757812 C 551.675781 305.234375 550.875 304.753906 550.046875 304.3125 C 549.222656 303.867188 548.378906 303.46875 547.511719 303.109375 C 546.648438 302.75 545.769531 302.433594 544.875 302.160156 C 543.976562 301.886719 543.070312 301.660156 542.152344 301.476562 C 541.234375 301.292969 540.308594 301.152344 539.378906 301.058594 C 538.445312 300.96875 537.511719 300.921875 536.578125 300.917969 Z M 553.734375 480.769531 C 553.730469 481.332031 553.703125 481.894531 553.648438 482.453125 C 553.59375 483.015625 553.511719 483.570312 553.398438 484.121094 C 553.289062 484.671875 553.152344 485.21875 552.988281 485.757812 C 552.828125 486.296875 552.636719 486.824219 552.421875 487.34375 C 552.207031 487.863281 551.964844 488.371094 551.703125 488.867188 C 551.4375 489.363281 551.148438 489.84375 550.835938 490.3125 C 550.523438 490.78125 550.1875 491.230469 549.832031 491.667969 C 549.476562 492.101562 549.097656 492.519531 548.703125 492.914062 C 548.304688 493.3125 547.890625 493.691406 547.457031 494.046875 C 547.019531 494.40625 546.570312 494.738281 546.105469 495.050781 C 545.636719 495.367188 545.15625 495.65625 544.660156 495.917969 C 544.164062 496.183594 543.65625 496.425781 543.140625 496.640625 C 542.621094 496.855469 542.09375 497.046875 541.554688 497.210938 C 541.015625 497.375 540.472656 497.511719 539.921875 497.621094 C 539.371094 497.730469 538.816406 497.8125 538.257812 497.871094 C 537.699219 497.925781 537.136719 497.953125 536.578125 497.953125 L 273.515625 497.953125 C 272.957031 497.953125 272.394531 497.925781 271.835938 497.871094 C 271.277344 497.8125 270.722656 497.730469 270.171875 497.621094 C 269.621094 497.511719 269.078125 497.375 268.539062 497.210938 C 268 497.046875 267.472656 496.855469 266.953125 496.640625 C 266.4375 496.425781 265.929688 496.183594 265.433594 495.921875 C 264.9375 495.65625 264.457031 495.367188 263.988281 495.050781 C 263.523438 494.738281 263.074219 494.40625 262.636719 494.046875 C 262.203125 493.691406 261.789062 493.3125 261.390625 492.914062 C 260.996094 492.519531 260.617188 492.101562 260.261719 491.667969 C 259.90625 491.230469 259.570312 490.78125 259.257812 490.3125 C 258.945312 489.84375 258.65625 489.363281 258.390625 488.867188 C 258.128906 488.371094 257.886719 487.863281 257.671875 487.34375 C 257.457031 486.824219 257.265625 486.296875 257.105469 485.757812 C 256.941406 485.21875 256.804688 484.671875 256.695312 484.121094 C 256.582031 483.570312 256.5 483.015625 256.445312 482.453125 C 256.390625 481.894531 256.363281 481.332031 256.359375 480.769531 L 256.359375 329.558594 C 256.363281 328.996094 256.390625 328.4375 256.445312 327.875 C 256.5 327.316406 256.582031 326.761719 256.695312 326.207031 C 256.804688 325.65625 256.941406 325.113281 257.105469 324.574219 C 257.265625 324.035156 257.457031 323.507812 257.671875 322.988281 C 257.886719 322.46875 258.128906 321.957031 258.390625 321.460938 C 258.65625 320.964844 258.945312 320.484375 259.257812 320.015625 C 259.570312 319.550781 259.90625 319.097656 260.261719 318.664062 C 260.617188 318.226562 260.996094 317.8125 261.390625 317.414062 C 261.789062 317.015625 262.203125 316.640625 262.636719 316.28125 C 263.074219 315.925781 263.523438 315.589844 263.988281 315.277344 C 264.457031 314.964844 264.9375 314.675781 265.433594 314.410156 C 265.929688 314.144531 266.4375 313.902344 266.953125 313.6875 C 267.472656 313.472656 268 313.285156 268.539062 313.121094 C 269.078125 312.957031 269.621094 312.820312 270.171875 312.707031 C 270.722656 312.597656 271.277344 312.515625 271.835938 312.460938 C 272.394531 312.40625 272.957031 312.375 273.515625 312.375 L 536.578125 312.375 C 537.136719 312.375 537.699219 312.40625 538.257812 312.460938 C 538.816406 312.515625 539.371094 312.597656 539.921875 312.707031 C 540.472656 312.820312 541.015625 312.957031 541.554688 313.121094 C 542.09375 313.285156 542.621094 313.472656 543.140625 313.6875 C 543.65625 313.902344 544.164062 314.144531 544.660156 314.410156 C 545.15625 314.675781 545.636719 314.964844 546.105469 315.277344 C 546.570312 315.589844 547.019531 315.925781 547.457031 316.28125 C 547.890625 316.640625 548.304688 317.015625 548.703125 317.414062 C 549.097656 317.8125 549.476562 318.226562 549.832031 318.664062 C 550.1875 319.097656 550.523438 319.550781 550.835938 320.015625 C 551.148438 320.484375 551.4375 320.964844 551.703125 321.460938 C 551.964844 321.957031 552.207031 322.46875 552.421875 322.988281 C 552.636719 323.507812 552.828125 324.035156 552.988281 324.574219 C 553.152344 325.113281 553.289062 325.65625 553.398438 326.207031 C 553.511719 326.761719 553.59375 327.316406 553.648438 327.875 C 553.703125 328.4375 553.730469 328.996094 553.734375 329.558594 Z M 553.734375 480.769531 " fill-opacity="1" fill-rule="nonzero"/></g><path fill="#231f20" d="M 361.433594 438.65625 C 362.734375 439.417969 364.113281 439.996094 365.566406 440.390625 C 367.023438 440.785156 368.503906 440.980469 370.011719 440.980469 C 371.519531 440.980469 373 440.785156 374.453125 440.390625 C 375.910156 439.996094 377.289062 439.417969 378.589844 438.65625 L 455.84375 393.984375 C 456.167969 393.796875 456.488281 393.597656 456.796875 393.390625 C 457.109375 393.179688 457.414062 392.960938 457.710938 392.734375 C 458.007812 392.503906 458.296875 392.265625 458.578125 392.019531 C 458.859375 391.773438 459.132812 391.515625 459.398438 391.25 C 459.660156 390.984375 459.917969 390.710938 460.164062 390.429688 C 460.410156 390.148438 460.648438 389.859375 460.875 389.558594 C 461.105469 389.261719 461.324219 388.957031 461.53125 388.644531 C 461.738281 388.332031 461.9375 388.015625 462.121094 387.691406 C 462.308594 387.367188 462.488281 387.035156 462.652344 386.699219 C 462.816406 386.363281 462.972656 386.019531 463.113281 385.675781 C 463.257812 385.328125 463.390625 384.976562 463.511719 384.621094 C 463.628906 384.265625 463.738281 383.90625 463.835938 383.546875 C 463.933594 383.183594 464.019531 382.816406 464.089844 382.449219 C 464.164062 382.082031 464.226562 381.710938 464.273438 381.339844 C 464.324219 380.96875 464.359375 380.59375 464.382812 380.222656 C 464.40625 379.847656 464.421875 379.472656 464.421875 379.097656 C 464.421875 378.722656 464.40625 378.347656 464.382812 377.972656 C 464.359375 377.597656 464.320312 377.226562 464.273438 376.855469 C 464.222656 376.480469 464.164062 376.113281 464.089844 375.746094 C 464.015625 375.375 463.933594 375.011719 463.835938 374.648438 C 463.738281 374.285156 463.628906 373.929688 463.507812 373.574219 C 463.390625 373.21875 463.257812 372.867188 463.113281 372.519531 C 462.96875 372.175781 462.816406 371.832031 462.652344 371.496094 C 462.484375 371.160156 462.308594 370.828125 462.121094 370.503906 C 461.933594 370.179688 461.738281 369.859375 461.527344 369.550781 C 461.320312 369.238281 461.101562 368.933594 460.875 368.636719 C 460.648438 368.335938 460.410156 368.046875 460.164062 367.765625 C 459.914062 367.484375 459.660156 367.210938 459.394531 366.945312 C 459.128906 366.679688 458.855469 366.421875 458.574219 366.175781 C 458.292969 365.929688 458.003906 365.691406 457.707031 365.460938 C 457.410156 365.234375 457.105469 365.015625 456.796875 364.808594 C 456.484375 364.597656 456.167969 364.402344 455.84375 364.214844 L 378.589844 319.542969 C 377.285156 318.785156 375.90625 318.214844 374.453125 317.824219 C 372.996094 317.433594 371.515625 317.238281 370.011719 317.238281 C 368.503906 317.238281 367.023438 317.433594 365.570312 317.824219 C 364.117188 318.214844 362.734375 318.789062 361.433594 319.542969 C 360.128906 320.296875 358.945312 321.207031 357.878906 322.273438 C 356.816406 323.339844 355.90625 324.523438 355.152344 325.832031 C 354.402344 327.136719 353.828125 328.519531 353.441406 329.976562 C 353.050781 331.433594 352.855469 332.917969 352.855469 334.425781 L 352.855469 423.769531 C 352.847656 425.28125 353.035156 426.765625 353.421875 428.226562 C 353.804688 429.683594 354.375 431.070312 355.128906 432.378906 C 355.882812 433.683594 356.796875 434.871094 357.863281 435.9375 C 358.933594 437 360.125 437.90625 361.433594 438.65625 Z M 364.292969 334.425781 C 364.289062 333.921875 364.347656 333.425781 364.476562 332.9375 C 364.605469 332.453125 364.792969 331.988281 365.042969 331.554688 C 365.296875 331.117188 365.601562 330.722656 365.957031 330.367188 C 366.316406 330.011719 366.714844 329.710938 367.152344 329.464844 C 368.039062 328.957031 368.992188 328.707031 370.011719 328.707031 C 371.03125 328.707031 371.984375 328.957031 372.871094 329.464844 L 450.121094 374.136719 C 451.003906 374.648438 451.703125 375.347656 452.214844 376.234375 C 452.726562 377.117188 452.980469 378.074219 452.984375 379.097656 C 452.984375 380.121094 452.726562 381.074219 452.21875 381.960938 C 451.707031 382.847656 451.007812 383.546875 450.125 384.058594 L 372.871094 428.730469 C 371.984375 429.242188 371.03125 429.5 370.011719 429.5 C 368.988281 429.5 368.035156 429.242188 367.152344 428.730469 C 366.265625 428.21875 365.570312 427.519531 365.058594 426.636719 C 364.546875 425.75 364.292969 424.792969 364.292969 423.769531 Z M 364.292969 334.425781 " fill-opacity="1" fill-rule="nonzero"/><path fill="#231f20" d="M 500.433594 465.023438 L 479.238281 465.023438 L 479.238281 454.128906 C 479.234375 453.753906 479.191406 453.386719 479.117188 453.019531 C 479.039062 452.65625 478.925781 452.304688 478.78125 451.960938 C 478.632812 451.617188 478.457031 451.292969 478.246094 450.984375 C 478.039062 450.675781 477.800781 450.390625 477.535156 450.128906 C 477.269531 449.867188 476.984375 449.632812 476.671875 449.429688 C 476.363281 449.222656 476.035156 449.050781 475.691406 448.910156 C 475.347656 448.765625 474.992188 448.660156 474.625 448.589844 C 474.261719 448.515625 473.890625 448.480469 473.519531 448.480469 C 473.148438 448.480469 472.78125 448.515625 472.414062 448.589844 C 472.050781 448.660156 471.695312 448.765625 471.351562 448.910156 C 471.007812 449.050781 470.679688 449.222656 470.367188 449.429688 C 470.058594 449.632812 469.769531 449.867188 469.503906 450.128906 C 469.238281 450.390625 469.003906 450.675781 468.792969 450.984375 C 468.582031 451.292969 468.40625 451.617188 468.261719 451.960938 C 468.113281 452.304688 468.003906 452.65625 467.925781 453.019531 C 467.847656 453.386719 467.808594 453.753906 467.800781 454.128906 L 467.800781 465.023438 L 309.664062 465.023438 C 309.292969 465.03125 308.925781 465.070312 308.5625 465.148438 C 308.195312 465.226562 307.84375 465.339844 307.503906 465.484375 C 307.160156 465.632812 306.835938 465.808594 306.527344 466.019531 C 306.222656 466.230469 305.9375 466.46875 305.675781 466.734375 C 305.417969 467 305.183594 467.285156 304.980469 467.597656 C 304.773438 467.90625 304.601562 468.234375 304.460938 468.582031 C 304.320312 468.925781 304.210938 469.28125 304.140625 469.644531 C 304.070312 470.011719 304.035156 470.378906 304.035156 470.753906 C 304.035156 471.125 304.070312 471.492188 304.140625 471.859375 C 304.210938 472.222656 304.320312 472.578125 304.460938 472.925781 C 304.601562 473.269531 304.773438 473.597656 304.980469 473.90625 C 305.183594 474.21875 305.417969 474.507812 305.675781 474.769531 C 305.9375 475.035156 306.222656 475.273438 306.53125 475.484375 C 306.835938 475.695312 307.160156 475.871094 307.503906 476.019531 C 307.84375 476.164062 308.199219 476.277344 308.5625 476.355469 C 308.925781 476.433594 309.292969 476.472656 309.664062 476.480469 L 467.800781 476.480469 L 467.800781 487.382812 C 467.808594 487.753906 467.847656 488.125 467.925781 488.488281 C 468.003906 488.851562 468.113281 489.207031 468.261719 489.550781 C 468.40625 489.890625 468.582031 490.21875 468.792969 490.527344 C 469.003906 490.832031 469.238281 491.117188 469.503906 491.378906 C 469.769531 491.640625 470.058594 491.875 470.367188 492.082031 C 470.679688 492.285156 471.007812 492.460938 471.351562 492.601562 C 471.695312 492.742188 472.050781 492.847656 472.414062 492.921875 C 472.78125 492.992188 473.148438 493.03125 473.519531 493.03125 C 473.890625 493.03125 474.261719 492.992188 474.625 492.921875 C 474.992188 492.847656 475.347656 492.742188 475.691406 492.601562 C 476.035156 492.460938 476.363281 492.285156 476.671875 492.082031 C 476.984375 491.875 477.269531 491.640625 477.535156 491.378906 C 477.800781 491.117188 478.039062 490.832031 478.246094 490.527344 C 478.457031 490.21875 478.632812 489.890625 478.78125 489.550781 C 478.925781 489.207031 479.039062 488.851562 479.117188 488.488281 C 479.191406 488.125 479.234375 487.753906 479.238281 487.382812 L 479.238281 476.480469 L 500.433594 476.480469 C 500.804688 476.472656 501.171875 476.433594 501.535156 476.355469 C 501.898438 476.277344 502.253906 476.167969 502.59375 476.019531 C 502.9375 475.875 503.261719 475.695312 503.570312 475.484375 C 503.875 475.277344 504.160156 475.039062 504.421875 474.773438 C 504.683594 474.507812 504.914062 474.21875 505.121094 473.90625 C 505.324219 473.597656 505.5 473.269531 505.640625 472.925781 C 505.78125 472.578125 505.886719 472.226562 505.960938 471.859375 C 506.03125 471.492188 506.066406 471.125 506.066406 470.753906 C 506.066406 470.378906 506.03125 470.011719 505.960938 469.644531 C 505.886719 469.28125 505.78125 468.925781 505.640625 468.578125 C 505.5 468.234375 505.324219 467.90625 505.121094 467.597656 C 504.914062 467.285156 504.683594 466.996094 504.421875 466.730469 C 504.160156 466.464844 503.875 466.226562 503.570312 466.019531 C 503.261719 465.808594 502.9375 465.628906 502.59375 465.484375 C 502.253906 465.335938 501.898438 465.226562 501.535156 465.148438 C 501.171875 465.070312 500.804688 465.03125 500.433594 465.023438 Z M 500.433594 465.023438 " fill-opacity="1" fill-rule="nonzero"/></svg>