<svg xmlns="http://www.w3.org/2000/svg" xmlns:xlink="http://www.w3.org/1999/xlink" width="1080" zoomAndPan="magnify" viewBox="0 0 810 809.999993" height="1080" preserveAspectRatio="xMidYMid meet" version="1.0"><defs><clipPath id="id1"><path d="M 86.109375 448 L 113 448 L 113 476 L 86.109375 476 Z M 86.109375 448 " clip-rule="nonzero"/></clipPath><clipPath id="id2"><path d="M 693 511 L 723.484375 511 L 723.484375 541 L 693 541 Z M 693 511 " clip-rule="nonzero"/></clipPath><clipPath id="id3"><path d="M 290.015625 701.683594 L 320 701.683594 L 320 731.289062 L 290.015625 731.289062 Z M 290.015625 701.683594 " clip-rule="nonzero"/></clipPath></defs><path fill="#2a3b95" d="M 644.816406 402.808594 C 644.816406 535.953125 536.917969 643.894531 403.820312 643.894531 C 270.722656 643.894531 162.820312 535.953125 162.820312 402.808594 C 162.820312 269.660156 270.722656 161.71875 403.820312 161.71875 C 536.917969 161.71875 644.816406 269.660156 644.816406 402.808594 " fill-opacity="1" fill-rule="nonzero"/><path fill="#2a3b95" d="M 403.820312 150.335938 C 264.65625 150.335938 151.445312 263.59375 151.445312 402.808594 C 151.445312 542.015625 264.65625 655.277344 403.820312 655.277344 C 542.984375 655.277344 656.195312 542.015625 656.195312 402.808594 C 656.195312 263.59375 542.984375 150.335938 403.820312 150.335938 Z M 403.820312 666.085938 C 258.703125 666.085938 140.636719 547.980469 140.636719 402.808594 C 140.636719 257.632812 258.703125 139.527344 403.820312 139.527344 C 548.933594 139.527344 667 257.632812 667 402.808594 C 667 547.980469 548.933594 666.085938 403.820312 666.085938 " fill-opacity="1" fill-rule="nonzero"/><path fill="#2a3b95" d="M 188.664062 145.851562 C 185.355469 145.851562 182.660156 148.546875 182.660156 151.859375 C 182.660156 155.164062 185.355469 157.859375 188.664062 157.859375 C 191.96875 157.859375 194.664062 155.164062 194.664062 151.859375 C 194.664062 148.546875 191.96875 145.851562 188.664062 145.851562 Z M 188.664062 165.582031 C 181.097656 165.582031 174.941406 159.421875 174.941406 151.859375 C 174.941406 144.289062 181.097656 138.128906 188.664062 138.128906 C 196.226562 138.128906 202.382812 144.289062 202.382812 151.859375 C 202.382812 159.421875 196.226562 165.582031 188.664062 165.582031 " fill-opacity="1" fill-rule="nonzero"/><path fill="#2a3b95" d="M 715.585938 298.484375 L 719.71875 294.359375 C 721.226562 292.851562 721.226562 290.402344 719.71875 288.894531 C 718.210938 287.386719 715.769531 287.386719 714.261719 288.894531 L 710.128906 293.027344 L 706 288.894531 C 704.5 287.386719 702.054688 287.386719 700.550781 288.894531 C 699.042969 290.402344 699.042969 292.851562 700.550781 294.359375 L 704.671875 298.484375 L 700.550781 302.617188 C 699.042969 304.121094 699.042969 306.570312 700.550781 308.078125 C 701.296875 308.832031 702.285156 309.203125 703.273438 309.203125 C 704.261719 309.203125 705.253906 308.832031 706 308.078125 L 710.128906 303.945312 L 714.261719 308.078125 C 715.015625 308.832031 716.003906 309.203125 716.984375 309.203125 C 717.976562 309.203125 718.964844 308.832031 719.71875 308.078125 C 721.226562 306.570312 721.226562 304.121094 719.71875 302.617188 L 715.585938 298.484375 " fill-opacity="1" fill-rule="nonzero"/><path fill="#f7941d" d="M 119.003906 283.121094 L 125.226562 283.121094 L 122.117188 277.730469 Z M 131.914062 290.84375 L 112.324219 290.84375 C 110.941406 290.84375 109.671875 290.109375 108.976562 288.914062 C 108.289062 287.714844 108.289062 286.246094 108.976562 285.054688 L 118.773438 268.078125 C 119.460938 266.886719 120.734375 266.148438 122.117188 266.148438 C 123.496094 266.148438 124.769531 266.886719 125.457031 268.078125 L 135.253906 285.054688 C 135.941406 286.246094 135.941406 287.714844 135.253906 288.914062 C 134.558594 290.109375 133.289062 290.84375 131.914062 290.84375 " fill-opacity="1" fill-rule="nonzero"/><path fill="#2a3b95" d="M 464.851562 106.703125 C 463.519531 106.703125 462.222656 106.007812 461.511719 104.773438 C 460.445312 102.921875 461.078125 100.5625 462.921875 99.496094 L 474.101562 93.042969 L 462.921875 86.585938 C 461.078125 85.519531 460.445312 83.160156 461.511719 81.316406 C 462.570312 79.46875 464.933594 78.835938 466.78125 79.898438 L 483.746094 89.699219 C 484.9375 90.386719 485.675781 91.660156 485.675781 93.042969 C 485.675781 94.421875 484.9375 95.695312 483.746094 96.390625 L 466.78125 106.183594 C 466.171875 106.535156 465.507812 106.703125 464.851562 106.703125 " fill-opacity="1" fill-rule="nonzero"/><path fill="#f7941d" d="M 618.023438 164.601562 L 629.953125 164.601562 L 629.953125 152.667969 L 618.023438 152.667969 Z M 633.8125 172.324219 L 614.164062 172.324219 C 612.035156 172.324219 610.304688 170.597656 610.304688 168.464844 L 610.304688 148.804688 C 610.304688 146.675781 612.035156 144.945312 614.164062 144.945312 L 633.8125 144.945312 C 635.949219 144.945312 637.671875 146.675781 637.671875 148.804688 L 637.671875 168.464844 C 637.671875 170.597656 635.949219 172.324219 633.8125 172.324219 " fill-opacity="1" fill-rule="nonzero"/><path fill="#f7941d" d="M 179.28125 624.132812 L 186.835938 616.574219 C 188.34375 615.066406 188.34375 612.625 186.835938 611.117188 C 185.328125 609.609375 182.886719 609.609375 181.378906 611.117188 L 173.824219 618.675781 L 166.269531 611.117188 C 164.761719 609.609375 162.320312 609.609375 160.8125 611.117188 C 159.304688 612.625 159.304688 615.066406 160.8125 616.574219 L 168.367188 624.132812 L 160.8125 631.699219 C 159.304688 633.199219 159.304688 635.640625 160.8125 637.15625 C 161.566406 637.902344 162.554688 638.285156 163.539062 638.285156 C 164.527344 638.285156 165.515625 637.902344 166.269531 637.15625 L 173.824219 629.59375 L 181.378906 637.15625 C 182.132812 637.902344 183.121094 638.285156 184.113281 638.285156 C 185.09375 638.285156 186.082031 637.902344 186.835938 637.15625 C 188.34375 635.640625 188.34375 633.199219 186.835938 631.699219 L 179.28125 624.132812 " fill-opacity="1" fill-rule="nonzero"/><path fill="#2a3b95" d="M 634.484375 628.46875 C 629.054688 628.46875 624.640625 632.886719 624.640625 638.3125 C 624.640625 643.738281 629.054688 648.160156 634.484375 648.160156 C 639.910156 648.160156 644.324219 643.738281 644.324219 638.3125 C 644.324219 632.886719 639.910156 628.46875 634.484375 628.46875 Z M 634.484375 655.878906 C 624.804688 655.878906 616.925781 647.996094 616.925781 638.3125 C 616.925781 628.628906 624.804688 620.75 634.484375 620.75 C 644.167969 620.75 652.039062 628.628906 652.039062 638.3125 C 652.039062 647.996094 644.167969 655.878906 634.484375 655.878906 " fill-opacity="1" fill-rule="nonzero"/><g clip-path="url(#id1)"><path fill="#2a3b95" d="M 95.1875 475.304688 C 93.488281 475.304688 91.925781 474.164062 91.464844 472.445312 L 86.394531 453.515625 C 86.039062 452.183594 86.417969 450.761719 87.398438 449.78125 C 88.367188 448.8125 89.789062 448.433594 91.121094 448.789062 L 110.042969 453.859375 C 112.101562 454.410156 113.324219 456.527344 112.769531 458.582031 C 112.21875 460.644531 110.105469 461.859375 108.042969 461.316406 L 95.578125 457.972656 L 98.917969 470.441406 C 99.46875 472.503906 98.25 474.621094 96.1875 475.171875 C 95.855469 475.261719 95.519531 475.304688 95.1875 475.304688 " fill-opacity="1" fill-rule="nonzero"/></g><g clip-path="url(#id2)"><path fill="#f7941d" d="M 703.296875 520.710938 L 705.675781 529.578125 L 712.164062 523.089844 Z M 703.671875 540.898438 C 703.339844 540.898438 703.007812 540.851562 702.675781 540.765625 C 701.34375 540.410156 700.308594 539.367188 699.945312 538.035156 L 694.109375 516.246094 C 693.757812 514.921875 694.140625 513.496094 695.109375 512.519531 C 696.085938 511.542969 697.511719 511.167969 698.84375 511.519531 L 720.621094 517.359375 C 721.949219 517.714844 722.992188 518.757812 723.347656 520.089844 C 723.703125 521.421875 723.324219 522.839844 722.347656 523.816406 L 706.402344 539.765625 C 705.667969 540.503906 704.683594 540.898438 703.671875 540.898438 " fill-opacity="1" fill-rule="nonzero"/></g><g clip-path="url(#id3)"><path fill="#2a3b95" d="M 299.632812 716.589844 L 305.003906 721.964844 L 310.378906 716.589844 L 305.003906 711.214844 Z M 305.003906 731.289062 C 303.980469 731.289062 302.996094 730.878906 302.273438 730.15625 L 291.445312 719.320312 C 290.722656 718.597656 290.316406 717.613281 290.316406 716.589844 C 290.316406 715.5625 290.722656 714.585938 291.445312 713.863281 L 302.273438 703.03125 C 303.78125 701.523438 306.230469 701.523438 307.730469 703.03125 L 318.558594 713.863281 C 319.289062 714.585938 319.695312 715.5625 319.695312 716.589844 C 319.695312 717.613281 319.289062 718.597656 318.566406 719.320312 L 307.738281 730.15625 C 307.007812 730.878906 306.03125 731.289062 305.003906 731.289062 " fill-opacity="1" fill-rule="nonzero"/></g><path fill="#f7941d" d="M 292.757812 114.742188 C 291.277344 115.261719 289.800781 115.789062 288.320312 116.324219 C 285.523438 117.34375 284.078125 120.445312 285.097656 123.25 C 285.890625 125.445312 287.964844 126.808594 290.171875 126.808594 C 290.78125 126.808594 291.410156 126.703125 292.019531 126.480469 C 293.441406 125.964844 294.871094 125.457031 296.304688 124.957031 C 299.125 123.980469 300.617188 120.902344 299.640625 118.078125 C 298.664062 115.261719 295.582031 113.765625 292.757812 114.742188 " fill-opacity="1" fill-rule="nonzero"/><path fill="#f7941d" d="M 369.214844 97.96875 C 367.648438 98.125 366.085938 98.289062 364.53125 98.464844 C 361.5625 98.796875 359.433594 101.472656 359.765625 104.441406 C 360.082031 107.199219 362.414062 109.238281 365.128906 109.238281 C 365.332031 109.238281 365.539062 109.226562 365.742188 109.207031 C 367.242188 109.03125 368.757812 108.875 370.265625 108.722656 C 373.238281 108.433594 375.40625 105.792969 375.117188 102.824219 C 374.828125 99.851562 372.195312 97.691406 369.214844 97.96875 " fill-opacity="1" fill-rule="nonzero"/><path fill="#f7941d" d="M 330.492188 104.089844 C 328.957031 104.429688 327.429688 104.777344 325.90625 105.136719 C 323 105.8125 321.195312 108.71875 321.871094 111.632812 C 322.457031 114.117188 324.675781 115.800781 327.128906 115.800781 C 327.539062 115.800781 327.949219 115.757812 328.363281 115.660156 C 329.84375 115.3125 331.320312 114.980469 332.808594 114.652344 C 335.722656 114.015625 337.566406 111.128906 336.925781 108.21875 C 336.289062 105.296875 333.398438 103.453125 330.492188 104.089844 " fill-opacity="1" fill-rule="nonzero"/><path fill="#f9d606" d="M 223.636719 521.175781 C 222.226562 519.039062 219.355469 518.449219 217.21875 519.855469 C 215.085938 521.265625 214.496094 524.136719 215.898438 526.273438 C 216.769531 527.59375 217.648438 528.902344 218.546875 530.199219 C 219.445312 531.507812 220.890625 532.207031 222.363281 532.207031 C 223.269531 532.207031 224.183594 531.941406 224.988281 531.394531 C 227.089844 529.941406 227.621094 527.058594 226.175781 524.953125 C 225.316406 523.703125 224.46875 522.441406 223.636719 521.175781 " fill-opacity="1" fill-rule="nonzero"/><path fill="#f9d606" d="M 261.296875 564.5625 C 259.378906 562.875 256.457031 563.054688 254.761719 564.980469 C 253.074219 566.898438 253.257812 569.824219 255.175781 571.519531 C 256.359375 572.5625 257.558594 573.59375 258.765625 574.617188 C 259.632812 575.355469 260.695312 575.710938 261.753906 575.710938 C 263.070312 575.710938 264.371094 575.15625 265.289062 574.070312 C 266.941406 572.121094 266.699219 569.195312 264.746094 567.542969 C 263.589844 566.558594 262.4375 565.570312 261.296875 564.5625 " fill-opacity="1" fill-rule="nonzero"/><path fill="#f9d606" d="M 262.160156 228.183594 C 260.929688 229.1875 259.710938 230.195312 258.511719 231.210938 C 256.558594 232.871094 256.316406 235.789062 257.96875 237.746094 C 258.886719 238.824219 260.195312 239.378906 261.503906 239.378906 C 262.5625 239.378906 263.625 239.019531 264.5 238.28125 C 265.652344 237.300781 266.820312 236.332031 267.996094 235.378906 C 269.980469 233.765625 270.28125 230.851562 268.671875 228.867188 C 267.0625 226.875 264.144531 226.574219 262.160156 228.183594 " fill-opacity="1" fill-rule="nonzero"/><path fill="#f9d606" d="M 241.019531 544.121094 C 239.34375 542.191406 236.425781 541.980469 234.488281 543.664062 C 232.558594 545.339844 232.347656 548.265625 234.023438 550.195312 C 235.0625 551.390625 236.113281 552.570312 237.171875 553.746094 C 238.089844 554.753906 239.34375 555.269531 240.609375 555.269531 C 241.71875 555.269531 242.828125 554.871094 243.714844 554.066406 C 245.613281 552.347656 245.753906 549.421875 244.039062 547.523438 C 243.019531 546.402344 242.015625 545.265625 241.019531 544.121094 " fill-opacity="1" fill-rule="nonzero"/><path fill="#f9d606" d="M 227.539062 270.75 C 225.464844 269.253906 222.570312 269.730469 221.074219 271.808594 C 220.152344 273.097656 219.246094 274.390625 218.347656 275.699219 C 216.902344 277.808594 217.4375 280.691406 219.542969 282.140625 C 220.34375 282.6875 221.261719 282.953125 222.160156 282.953125 C 223.636719 282.953125 225.082031 282.25 225.980469 280.9375 C 226.84375 279.691406 227.710938 278.441406 228.597656 277.210938 C 230.085938 275.136719 229.617188 272.242188 227.539062 270.75 " fill-opacity="1" fill-rule="nonzero"/><path fill="#f9d606" d="M 240.167969 248.625 C 239.082031 249.777344 238.011719 250.941406 236.949219 252.113281 C 235.238281 254.011719 235.382812 256.945312 237.28125 258.65625 C 238.167969 259.460938 239.277344 259.851562 240.386719 259.851562 C 241.648438 259.851562 242.90625 259.339844 243.824219 258.324219 C 244.84375 257.203125 245.867188 256.089844 246.910156 254.976562 C 248.664062 253.121094 248.574219 250.1875 246.710938 248.433594 C 244.855469 246.679688 241.925781 246.761719 240.167969 248.625 " fill-opacity="1" fill-rule="nonzero"/><path fill="#f9d606" d="M 340.066406 608.84375 C 338.613281 608.390625 337.167969 607.925781 335.722656 607.445312 C 333.296875 606.628906 330.675781 607.945312 329.867188 610.375 C 329.058594 612.800781 330.367188 615.421875 332.796875 616.230469 C 334.304688 616.734375 335.8125 617.222656 337.332031 617.691406 C 337.789062 617.832031 338.246094 617.898438 338.699219 617.898438 C 340.675781 617.898438 342.511719 616.625 343.125 614.632812 C 343.878906 612.191406 342.511719 609.597656 340.066406 608.84375 " fill-opacity="1" fill-rule="nonzero"/><path fill="#f9d606" d="M 313.230469 196.929688 C 311.789062 197.566406 310.355469 198.21875 308.925781 198.882812 C 306.605469 199.96875 305.601562 202.71875 306.6875 205.039062 C 307.472656 206.730469 309.140625 207.71875 310.882812 207.71875 C 311.542969 207.71875 312.207031 207.574219 312.839844 207.277344 C 314.207031 206.644531 315.582031 206.019531 316.96875 205.410156 C 319.308594 204.378906 320.371094 201.644531 319.339844 199.296875 C 318.308594 196.957031 315.570312 195.894531 313.230469 196.929688 " fill-opacity="1" fill-rule="nonzero"/><path fill="#f9d606" d="M 341.460938 186.691406 C 339.941406 187.125 338.421875 187.585938 336.914062 188.050781 C 334.472656 188.808594 333.109375 191.410156 333.871094 193.851562 C 334.492188 195.835938 336.316406 197.109375 338.289062 197.109375 C 338.746094 197.109375 339.210938 197.042969 339.671875 196.898438 C 341.117188 196.445312 342.570312 196.011719 344.023438 195.59375 C 346.484375 194.882812 347.902344 192.3125 347.195312 189.859375 C 346.484375 187.398438 343.914062 185.980469 341.460938 186.691406 " fill-opacity="1" fill-rule="nonzero"/><path fill="#f9d606" d="M 313.183594 598.492188 C 311.800781 597.851562 310.425781 597.195312 309.0625 596.527344 C 306.765625 595.402344 303.992188 596.351562 302.867188 598.648438 C 301.742188 600.945312 302.691406 603.722656 304.988281 604.84375 C 306.410156 605.542969 307.839844 606.226562 309.28125 606.894531 C 309.914062 607.191406 310.578125 607.328125 311.226562 607.328125 C 312.972656 607.328125 314.648438 606.332031 315.429688 604.644531 C 316.503906 602.324219 315.496094 599.566406 313.183594 598.492188 " fill-opacity="1" fill-rule="nonzero"/><path fill="#f9d606" d="M 287.925781 584.636719 C 286.644531 583.816406 285.375 582.992188 284.113281 582.144531 C 281.992188 580.714844 279.113281 581.289062 277.691406 583.414062 C 276.269531 585.535156 276.835938 588.414062 278.957031 589.835938 C 280.277344 590.722656 281.605469 591.589844 282.9375 592.441406 C 283.710938 592.9375 284.578125 593.171875 285.425781 593.171875 C 286.953125 593.171875 288.449219 592.417969 289.335938 591.03125 C 290.710938 588.878906 290.082031 586.011719 287.925781 584.636719 " fill-opacity="1" fill-rule="nonzero"/><path fill="#f9d606" d="M 286.652344 210.847656 C 285.308594 211.667969 283.96875 212.507812 282.640625 213.363281 C 280.484375 214.738281 279.863281 217.609375 281.242188 219.765625 C 282.125 221.144531 283.617188 221.894531 285.144531 221.894531 C 286 221.894531 286.867188 221.660156 287.640625 221.164062 C 288.914062 220.34375 290.195312 219.542969 291.488281 218.75 C 293.664062 217.410156 294.351562 214.558594 293.019531 212.382812 C 291.6875 210.199219 288.835938 209.511719 286.652344 210.847656 " fill-opacity="1" fill-rule="nonzero"/><path fill="#f9d606" d="M 187.058594 363.691406 C 187.367188 363.757812 187.675781 363.785156 187.976562 363.785156 C 190.140625 363.785156 192.070312 362.265625 192.515625 360.066406 C 192.8125 358.574219 193.125 357.089844 193.457031 355.613281 C 194.011719 353.109375 192.4375 350.636719 189.941406 350.082031 C 187.453125 349.527344 184.972656 351.101562 184.417969 353.597656 C 184.074219 355.136719 183.75 356.679688 183.4375 358.238281 C 182.929688 360.746094 184.550781 363.191406 187.058594 363.691406 " fill-opacity="1" fill-rule="nonzero"/><path fill="#f9d606" d="M 194.1875 335.136719 C 194.6875 335.304688 195.199219 335.390625 195.699219 335.390625 C 197.617188 335.390625 199.414062 334.1875 200.078125 332.269531 C 200.574219 330.828125 201.085938 329.398438 201.617188 327.96875 C 202.503906 325.574219 201.277344 322.910156 198.878906 322.023438 C 196.480469 321.136719 193.8125 322.359375 192.925781 324.753906 C 192.378906 326.246094 191.84375 327.742188 191.324219 329.242188 C 190.484375 331.660156 191.769531 334.296875 194.1875 335.136719 " fill-opacity="1" fill-rule="nonzero"/><path fill="#f9d606" d="M 603.886719 322.4375 C 604.617188 324.25 606.355469 325.347656 608.1875 325.347656 C 608.761719 325.347656 609.34375 325.238281 609.910156 325.015625 C 612.289062 324.054688 613.4375 321.359375 612.480469 318.980469 C 611.894531 317.523438 611.292969 316.070312 610.671875 314.621094 C 609.671875 312.261719 606.953125 311.171875 604.601562 312.171875 C 602.25 313.179688 601.152344 315.898438 602.15625 318.253906 C 602.75 319.640625 603.328125 321.039062 603.886719 322.4375 " fill-opacity="1" fill-rule="nonzero"/><path fill="#f9d606" d="M 211.492188 295.414062 C 209.238281 294.214844 206.425781 295.070312 205.226562 297.332031 C 204.484375 298.734375 203.757812 300.140625 203.039062 301.554688 C 201.886719 303.84375 202.804688 306.621094 205.089844 307.78125 C 205.757812 308.117188 206.46875 308.277344 207.167969 308.277344 C 208.863281 308.277344 210.492188 307.347656 211.304688 305.730469 C 211.992188 304.375 212.691406 303.023438 213.402344 301.683594 C 214.609375 299.421875 213.746094 296.621094 211.492188 295.414062 " fill-opacity="1" fill-rule="nonzero"/><path fill="#f9d606" d="M 617.40625 373.628906 C 617.605469 375.125 617.792969 376.632812 617.96875 378.148438 C 618.238281 380.511719 620.242188 382.257812 622.5625 382.257812 C 622.738281 382.257812 622.910156 382.246094 623.09375 382.21875 C 625.636719 381.929688 627.457031 379.636719 627.167969 377.09375 C 626.988281 375.519531 626.792969 373.949219 626.578125 372.386719 C 626.238281 369.855469 623.902344 368.082031 621.375 368.417969 C 618.839844 368.757812 617.0625 371.089844 617.40625 373.628906 " fill-opacity="1" fill-rule="nonzero"/><path fill="#f9d606" d="M 611.640625 345.417969 C 612.046875 346.878906 612.433594 348.351562 612.804688 349.824219 C 613.335938 351.921875 615.222656 353.316406 617.292969 353.316406 C 617.664062 353.316406 618.050781 353.273438 618.433594 353.175781 C 620.910156 352.542969 622.410156 350.027344 621.785156 347.542969 C 621.390625 346.011719 620.988281 344.484375 620.570312 342.964844 C 619.898438 340.496094 617.339844 339.042969 614.878906 339.726562 C 612.414062 340.402344 610.96875 342.953125 611.640625 345.417969 " fill-opacity="1" fill-rule="nonzero"/><path fill="#f9d606" d="M 209.460938 496.136719 C 208.351562 493.832031 205.582031 492.863281 203.28125 493.972656 C 200.976562 495.082031 200.007812 497.851562 201.117188 500.15625 C 201.804688 501.578125 202.496094 502.988281 203.214844 504.394531 C 204.027344 506.003906 205.65625 506.941406 207.34375 506.941406 C 208.050781 506.941406 208.765625 506.777344 209.4375 506.433594 C 211.714844 505.277344 212.625 502.488281 211.472656 500.210938 C 210.785156 498.859375 210.117188 497.5 209.460938 496.136719 " fill-opacity="1" fill-rule="nonzero"/><path fill="#f9d606" d="M 198.757812 469.410156 C 197.96875 466.980469 195.355469 465.648438 192.925781 466.4375 C 190.492188 467.222656 189.160156 469.839844 189.949219 472.269531 C 190.4375 473.777344 190.945312 475.28125 191.460938 476.769531 C 192.132812 478.679688 193.921875 479.882812 195.832031 479.882812 C 196.339844 479.882812 196.851562 479.796875 197.359375 479.621094 C 199.769531 478.777344 201.050781 476.140625 200.210938 473.722656 C 199.710938 472.292969 199.226562 470.859375 198.757812 469.410156 " fill-opacity="1" fill-rule="nonzero"/><path fill="#f9d606" d="M 183.816406 392.933594 C 183.917969 392.9375 184.019531 392.945312 184.125 392.945312 C 186.542969 392.945312 188.578125 391.0625 188.742188 388.613281 C 188.839844 387.09375 188.953125 385.578125 189.082031 384.070312 C 189.304688 381.519531 187.417969 379.28125 184.867188 379.058594 C 182.328125 378.835938 180.078125 380.730469 179.855469 383.277344 C 179.722656 384.851562 179.601562 386.429688 179.5 388.011719 C 179.332031 390.5625 181.265625 392.765625 183.816406 392.933594 " fill-opacity="1" fill-rule="nonzero"/><path fill="#f9d606" d="M 184.457031 422.351562 C 187.007812 422.175781 188.941406 419.96875 188.765625 417.417969 C 188.664062 415.90625 188.578125 414.386719 188.507812 412.875 C 188.394531 410.316406 186.222656 408.367188 183.671875 408.457031 C 181.113281 408.574219 179.144531 410.746094 179.257812 413.296875 C 179.332031 414.882812 179.421875 416.464844 179.53125 418.039062 C 179.691406 420.480469 181.722656 422.355469 184.140625 422.355469 C 184.246094 422.355469 184.351562 422.355469 184.457031 422.351562 " fill-opacity="1" fill-rule="nonzero"/><path fill="#f9d606" d="M 192.59375 445.957031 C 192.292969 444.476562 192.011719 442.984375 191.738281 441.488281 C 191.28125 438.96875 188.882812 437.308594 186.355469 437.753906 C 183.839844 438.214844 182.171875 440.621094 182.621094 443.140625 C 182.90625 444.699219 183.207031 446.253906 183.519531 447.796875 C 183.96875 450 185.898438 451.515625 188.054688 451.515625 C 188.355469 451.515625 188.671875 451.484375 188.976562 451.417969 C 191.484375 450.910156 193.109375 448.460938 192.59375 445.957031 " fill-opacity="1" fill-rule="nonzero"/><path fill="#f9d606" d="M 617.441406 456.519531 C 614.976562 455.839844 612.433594 457.296875 611.757812 459.773438 C 611.359375 461.230469 610.941406 462.691406 610.515625 464.140625 C 609.785156 466.59375 611.183594 469.175781 613.636719 469.898438 C 614.078125 470.03125 614.519531 470.09375 614.957031 470.09375 C 616.953125 470.09375 618.792969 468.789062 619.394531 466.773438 C 619.84375 465.261719 620.277344 463.742188 620.691406 462.207031 C 621.367188 459.742188 619.914062 457.191406 617.441406 456.519531 " fill-opacity="1" fill-rule="nonzero"/><path fill="#f9d606" d="M 579.5 535.664062 C 577.492188 534.078125 574.578125 534.421875 572.992188 536.425781 C 572.050781 537.617188 571.097656 538.800781 570.132812 539.964844 C 568.507812 541.945312 568.785156 544.863281 570.753906 546.492188 C 571.617188 547.203125 572.660156 547.546875 573.699219 547.546875 C 575.035156 547.546875 576.355469 546.972656 577.273438 545.871094 C 578.28125 544.644531 579.273438 543.414062 580.257812 542.171875 C 581.84375 540.164062 581.507812 537.25 579.5 535.664062 " fill-opacity="1" fill-rule="nonzero"/><path fill="#f9d606" d="M 559.855469 240.917969 C 558.007812 239.140625 555.078125 239.191406 553.304688 241.039062 C 551.53125 242.878906 551.582031 245.808594 553.425781 247.589844 C 554.519531 248.640625 555.597656 249.707031 556.664062 250.78125 C 557.570312 251.691406 558.761719 252.144531 559.949219 252.144531 C 561.132812 252.144531 562.308594 251.695312 563.210938 250.796875 C 565.027344 248.996094 565.039062 246.0625 563.238281 244.246094 C 562.113281 243.125 560.992188 242.015625 559.855469 240.917969 " fill-opacity="1" fill-rule="nonzero"/><path fill="#f9d606" d="M 540.699219 224.402344 C 539.445312 223.4375 538.175781 222.484375 536.90625 221.542969 C 534.84375 220.03125 531.941406 220.46875 530.429688 222.53125 C 528.914062 224.597656 529.355469 227.496094 531.417969 229.011719 C 532.636719 229.910156 533.855469 230.820312 535.054688 231.742188 C 535.890625 232.394531 536.886719 232.707031 537.871094 232.707031 C 539.261719 232.707031 540.632812 232.085938 541.546875 230.898438 C 543.105469 228.871094 542.730469 225.964844 540.699219 224.402344 " fill-opacity="1" fill-rule="nonzero"/><path fill="#f9d606" d="M 553.671875 557.78125 C 552.582031 558.839844 551.484375 559.882812 550.371094 560.917969 C 548.492188 562.65625 548.386719 565.589844 550.128906 567.464844 C 551.039062 568.449219 552.273438 568.941406 553.523438 568.941406 C 554.648438 568.941406 555.777344 568.53125 556.671875 567.707031 C 557.832031 566.632812 558.980469 565.546875 560.113281 564.441406 C 561.953125 562.664062 562 559.730469 560.222656 557.898438 C 558.441406 556.058594 555.507812 556.003906 553.671875 557.78125 " fill-opacity="1" fill-rule="nonzero"/><path fill="#f9d606" d="M 580.027344 263.152344 C 578.441406 261.148438 575.53125 260.8125 573.523438 262.402344 C 571.519531 263.996094 571.183594 266.910156 572.773438 268.910156 C 573.714844 270.101562 574.644531 271.292969 575.5625 272.5 C 576.472656 273.703125 577.851562 274.328125 579.25 274.328125 C 580.226562 274.328125 581.210938 274.027344 582.050781 273.386719 C 584.085938 271.84375 584.484375 268.9375 582.933594 266.898438 C 581.984375 265.636719 581.011719 264.386719 580.027344 263.152344 " fill-opacity="1" fill-rule="nonzero"/><path fill="#f9d606" d="M 628.617188 402.355469 C 628.617188 399.796875 626.546875 397.722656 623.984375 397.722656 C 621.429688 397.722656 619.355469 399.796875 619.355469 402.355469 L 619.359375 402.808594 C 619.359375 404.328125 619.34375 405.847656 619.3125 407.359375 C 619.257812 409.917969 621.289062 412.035156 623.847656 412.082031 C 623.875 412.089844 623.914062 412.089844 623.941406 412.089844 C 626.457031 412.089844 628.519531 410.074219 628.566406 407.546875 C 628.605469 405.972656 628.621094 404.394531 628.621094 402.757812 L 628.617188 402.355469 " fill-opacity="1" fill-rule="nonzero"/><path fill="#f9d606" d="M 531.703125 576.390625 C 530.484375 577.289062 529.253906 578.175781 528.015625 579.050781 C 525.925781 580.53125 525.429688 583.417969 526.90625 585.511719 C 527.8125 586.789062 529.242188 587.464844 530.695312 587.464844 C 531.617188 587.464844 532.550781 587.195312 533.359375 586.621094 C 534.648438 585.703125 535.933594 584.78125 537.199219 583.847656 C 539.257812 582.328125 539.695312 579.425781 538.175781 577.367188 C 536.65625 575.304688 533.75 574.871094 531.703125 576.390625 " fill-opacity="1" fill-rule="nonzero"/><path fill="#f9d606" d="M 622.664062 427.5625 C 620.132812 427.234375 617.796875 429.007812 617.460938 431.542969 C 617.261719 433.050781 617.042969 434.546875 616.816406 436.042969 C 616.417969 438.570312 618.148438 440.941406 620.675781 441.332031 C 620.914062 441.375 621.15625 441.386719 621.390625 441.386719 C 623.636719 441.386719 625.605469 439.757812 625.960938 437.472656 C 626.210938 435.910156 626.433594 434.339844 626.636719 432.765625 C 626.980469 430.234375 625.195312 427.898438 622.664062 427.5625 " fill-opacity="1" fill-rule="nonzero"/><path fill="#f9d606" d="M 597.082031 287.863281 C 595.773438 285.667969 592.933594 284.945312 590.730469 286.253906 C 588.535156 287.5625 587.8125 290.402344 589.121094 292.605469 C 589.894531 293.90625 590.652344 295.210938 591.40625 296.53125 C 592.257812 298.035156 593.824219 298.878906 595.433594 298.878906 C 596.207031 298.878906 596.996094 298.679688 597.71875 298.269531 C 599.9375 297.007812 600.714844 294.179688 599.457031 291.953125 C 598.679688 290.585938 597.882812 289.222656 597.082031 287.863281 " fill-opacity="1" fill-rule="nonzero"/><path fill="#f9d606" d="M 608.390625 484.519531 C 606.039062 483.523438 603.320312 484.617188 602.320312 486.976562 C 601.730469 488.375 601.113281 489.773438 600.492188 491.160156 C 599.445312 493.496094 600.488281 496.234375 602.820312 497.285156 C 603.4375 497.5625 604.082031 497.695312 604.714844 497.695312 C 606.480469 497.695312 608.167969 496.675781 608.941406 494.957031 C 609.59375 493.507812 610.226562 492.054688 610.847656 490.601562 C 611.847656 488.242188 610.742188 485.523438 608.390625 484.519531 " fill-opacity="1" fill-rule="nonzero"/><path fill="#f9d606" d="M 595.65625 511.066406 C 593.457031 509.761719 590.617188 510.488281 589.308594 512.6875 C 588.535156 513.996094 587.746094 515.292969 586.945312 516.585938 C 585.59375 518.757812 586.261719 521.617188 588.433594 522.960938 C 589.195312 523.4375 590.039062 523.660156 590.871094 523.660156 C 592.417969 523.660156 593.933594 522.890625 594.808594 521.476562 C 595.644531 520.132812 596.464844 518.773438 597.273438 517.410156 C 598.582031 515.214844 597.859375 512.375 595.65625 511.066406 " fill-opacity="1" fill-rule="nonzero"/><path fill="#f9d606" d="M 507.46875 591.90625 C 506.140625 592.636719 504.804688 593.351562 503.457031 594.058594 C 501.199219 595.242188 500.316406 598.039062 501.511719 600.308594 C 502.335938 601.886719 503.945312 602.792969 505.617188 602.792969 C 506.339844 602.792969 507.070312 602.625 507.757812 602.261719 C 509.15625 601.53125 510.542969 600.785156 511.925781 600.03125 C 514.167969 598.792969 514.980469 595.984375 513.75 593.738281 C 512.527344 591.496094 509.710938 590.675781 507.46875 591.90625 " fill-opacity="1" fill-rule="nonzero"/><path fill="#f9d606" d="M 400.71875 177.945312 C 399.140625 177.964844 397.558594 178 395.988281 178.058594 C 393.429688 178.144531 391.429688 180.285156 391.519531 182.84375 C 391.601562 185.347656 393.660156 187.320312 396.144531 187.320312 C 396.191406 187.320312 396.246094 187.320312 396.300781 187.320312 C 397.8125 187.265625 399.328125 187.230469 400.847656 187.203125 C 403.402344 187.175781 405.449219 185.070312 405.417969 182.511719 C 405.382812 179.953125 403.265625 177.875 400.71875 177.945312 " fill-opacity="1" fill-rule="nonzero"/><path fill="#f9d606" d="M 515.722656 207.71875 C 514.347656 206.929688 512.96875 206.15625 511.574219 205.398438 C 509.324219 204.167969 506.515625 204.992188 505.292969 207.234375 C 504.0625 209.480469 504.882812 212.289062 507.128906 213.519531 C 508.464844 214.25 509.789062 214.992188 511.105469 215.753906 C 511.828125 216.167969 512.625 216.367188 513.40625 216.367188 C 515.011719 216.367188 516.566406 215.535156 517.421875 214.046875 C 518.703125 211.832031 517.9375 208.996094 515.722656 207.71875 " fill-opacity="1" fill-rule="nonzero"/><path fill="#f9d606" d="M 396.722656 618.3125 C 395.203125 618.257812 393.691406 618.199219 392.175781 618.113281 C 389.625 617.980469 387.441406 619.933594 387.304688 622.492188 C 387.171875 625.042969 389.132812 627.226562 391.679688 627.367188 C 393.261719 627.449219 394.839844 627.515625 396.425781 627.570312 C 396.476562 627.570312 396.523438 627.570312 396.578125 627.570312 C 399.0625 627.570312 401.117188 625.59375 401.203125 623.089844 C 401.285156 620.53125 399.277344 618.390625 396.722656 618.3125 " fill-opacity="1" fill-rule="nonzero"/><path fill="#f9d606" d="M 370.808594 180.335938 C 369.238281 180.5625 367.675781 180.8125 366.117188 181.074219 C 363.59375 181.5 361.894531 183.894531 362.324219 186.414062 C 362.710938 188.675781 364.664062 190.273438 366.886719 190.273438 C 367.140625 190.273438 367.398438 190.257812 367.660156 190.207031 C 369.15625 189.953125 370.648438 189.71875 372.15625 189.496094 C 374.683594 189.121094 376.433594 186.769531 376.058594 184.238281 C 375.691406 181.710938 373.332031 179.953125 370.808594 180.335938 " fill-opacity="1" fill-rule="nonzero"/><path fill="#f9d606" d="M 430.699219 179.515625 C 429.132812 179.328125 427.558594 179.15625 425.976562 179 C 423.445312 178.746094 421.167969 180.613281 420.917969 183.15625 C 420.671875 185.707031 422.527344 187.96875 425.074219 188.222656 C 426.585938 188.367188 428.09375 188.539062 429.601562 188.71875 C 429.789062 188.738281 429.96875 188.75 430.152344 188.75 C 432.464844 188.75 434.460938 187.015625 434.746094 184.664062 C 435.046875 182.125 433.238281 179.816406 430.699219 179.515625 " fill-opacity="1" fill-rule="nonzero"/><path fill="#f9d606" d="M 425.5 617.347656 C 423.996094 617.5 422.488281 617.632812 420.96875 617.75 C 418.421875 617.949219 416.519531 620.183594 416.714844 622.734375 C 416.910156 625.160156 418.933594 627.003906 421.328125 627.003906 C 421.449219 627.003906 421.578125 627 421.695312 626.988281 C 423.277344 626.867188 424.851562 626.726562 426.425781 626.5625 C 428.96875 626.3125 430.824219 624.042969 430.574219 621.496094 C 430.3125 618.953125 428.0625 617.113281 425.5 617.347656 " fill-opacity="1" fill-rule="nonzero"/><path fill="#f9d606" d="M 368.074219 615.476562 C 366.574219 615.222656 365.085938 614.960938 363.59375 614.683594 C 361.082031 614.207031 358.664062 615.859375 358.1875 618.375 C 357.714844 620.886719 359.367188 623.3125 361.882812 623.785156 C 363.433594 624.078125 364.988281 624.355469 366.554688 624.617188 C 366.808594 624.660156 367.0625 624.675781 367.316406 624.675781 C 369.539062 624.675781 371.5 623.070312 371.878906 620.808594 C 372.300781 618.28125 370.597656 615.894531 368.074219 615.476562 " fill-opacity="1" fill-rule="nonzero"/><path fill="#f9d606" d="M 488.726562 194.519531 C 487.257812 193.917969 485.785156 193.332031 484.300781 192.765625 C 481.914062 191.847656 479.238281 193.042969 478.320312 195.433594 C 477.40625 197.820312 478.597656 200.5 480.988281 201.414062 C 482.410156 201.964844 483.828125 202.519531 485.230469 203.097656 C 485.804688 203.332031 486.394531 203.441406 486.980469 203.441406 C 488.808594 203.441406 490.539062 202.355469 491.265625 200.558594 C 492.230469 198.1875 491.097656 195.484375 488.726562 194.519531 " fill-opacity="1" fill-rule="nonzero"/><path fill="#f9d606" d="M 453.890625 612.578125 C 452.417969 612.925781 450.933594 613.265625 449.453125 613.582031 C 446.949219 614.125 445.363281 616.585938 445.898438 619.089844 C 446.371094 621.261719 448.289062 622.746094 450.421875 622.746094 C 450.746094 622.746094 451.074219 622.710938 451.40625 622.636719 C 452.953125 622.304688 454.492188 621.957031 456.03125 621.59375 C 458.515625 621.003906 460.050781 618.503906 459.464844 616.015625 C 458.875 613.523438 456.386719 611.984375 453.890625 612.578125 " fill-opacity="1" fill-rule="nonzero"/><path fill="#f9d606" d="M 460.207031 185.058594 C 458.675781 184.664062 457.140625 184.285156 455.59375 183.917969 C 453.113281 183.324219 450.613281 184.875 450.023438 187.367188 C 449.4375 189.851562 450.984375 192.351562 453.472656 192.933594 C 454.949219 193.285156 456.421875 193.644531 457.886719 194.027344 C 458.273438 194.128906 458.664062 194.175781 459.050781 194.175781 C 461.113281 194.175781 462.988281 192.789062 463.53125 190.703125 C 464.167969 188.222656 462.679688 185.695312 460.207031 185.058594 " fill-opacity="1" fill-rule="nonzero"/><path fill="#f9d606" d="M 481.378906 604.046875 C 479.960938 604.589844 478.542969 605.121094 477.117188 605.640625 C 474.710938 606.507812 473.46875 609.167969 474.335938 611.574219 C 475.015625 613.457031 476.796875 614.632812 478.6875 614.632812 C 479.214844 614.632812 479.746094 614.542969 480.269531 614.351562 C 481.753906 613.8125 483.234375 613.257812 484.707031 612.691406 C 487.09375 611.773438 488.28125 609.089844 487.367188 606.703125 C 486.441406 604.320312 483.765625 603.125 481.378906 604.046875 " fill-opacity="1" fill-rule="nonzero"/><path fill="#2a3b95" d="M 457.683594 695.484375 C 447.957031 697.183594 438.019531 698.453125 428.136719 699.253906 C 425.164062 699.496094 422.945312 702.101562 423.1875 705.074219 C 423.414062 707.902344 425.777344 710.046875 428.566406 710.046875 C 428.710938 710.046875 428.859375 710.039062 429.003906 710.027344 C 439.21875 709.199219 449.492188 707.890625 459.546875 706.136719 C 462.480469 705.625 464.445312 702.820312 463.933594 699.882812 C 463.421875 696.9375 460.625 694.984375 457.683594 695.484375 " fill-opacity="1" fill-rule="nonzero"/><path fill="#2a3b95" d="M 484.449219 689.621094 C 483.21875 689.945312 481.980469 690.265625 480.746094 690.574219 C 477.851562 691.304688 476.097656 694.234375 476.820312 697.132812 C 477.441406 699.585938 479.640625 701.21875 482.054688 701.21875 C 482.492188 701.21875 482.933594 701.171875 483.378906 701.058594 C 484.660156 700.738281 485.9375 700.40625 487.214844 700.070312 C 490.097656 699.308594 491.816406 696.347656 491.050781 693.464844 C 490.289062 690.574219 487.335938 688.855469 484.449219 689.621094 " fill-opacity="1" fill-rule="nonzero"/><path fill="#2a3b95" d="M 518.882812 684.230469 C 517.863281 681.425781 514.757812 679.984375 511.960938 681 C 510.53125 681.519531 509.109375 682.027344 507.671875 682.527344 C 504.851562 683.503906 503.363281 686.582031 504.339844 689.402344 C 505.117188 691.636719 507.203125 693.035156 509.441406 693.035156 C 510.03125 693.035156 510.628906 692.9375 511.210938 692.738281 C 512.703125 692.222656 514.179688 691.695312 515.65625 691.160156 C 518.453125 690.132812 519.90625 687.035156 518.882812 684.230469 " fill-opacity="1" fill-rule="nonzero"/><path fill="#f9d606" d="M 420.269531 333.109375 L 420.269531 338.261719 L 404.433594 338.261719 L 404.433594 330.773438 C 404.433594 322.167969 417.972656 317.300781 417.972656 312.152344 C 417.972656 308.601562 414.640625 306.339844 411.667969 306.339844 C 408.011719 306.339844 405.007812 309.523438 402.113281 313.269531 L 392.1875 304.042969 C 398.144531 296.464844 405.03125 291.742188 413.539062 291.742188 C 424.863281 291.742188 433.796875 299.710938 433.796875 312.347656 C 433.796875 324.507812 420.269531 327.5 420.269531 333.109375 Z M 412.132812 360.335938 C 407.046875 360.335938 402.914062 356.203125 402.914062 351.113281 C 402.914062 346.015625 407.046875 341.886719 412.132812 341.886719 C 417.230469 341.886719 421.359375 346.015625 421.359375 351.113281 C 421.359375 356.203125 417.230469 360.335938 412.132812 360.335938 Z M 412.992188 269.449219 C 382.382812 269.449219 357.566406 294.277344 357.566406 324.898438 C 357.566406 355.515625 382.382812 380.34375 412.992188 380.34375 C 443.601562 380.34375 468.414062 355.515625 468.414062 324.898438 C 468.414062 294.277344 443.601562 269.449219 412.992188 269.449219 " fill-opacity="1" fill-rule="nonzero"/><path fill="#f9d606" d="M 311.292969 463.613281 C 307.585938 460.949219 303.304688 459.097656 298.324219 459.097656 C 291.492188 459.097656 287.328125 461.875 284.660156 464.65625 C 284.3125 462.691406 284.199219 460.605469 284.199219 458.289062 C 284.199219 444.734375 290.566406 434.769531 297.511719 434.890625 C 306.078125 434.890625 311.523438 445.777344 311.523438 459.097656 C 311.523438 460.71875 311.410156 462.226562 311.292969 463.613281 Z M 298.324219 481.921875 C 295.546875 481.921875 292.878906 480.640625 290.566406 478.097656 C 292.1875 473.457031 294.503906 469.640625 298.324219 469.640625 C 302.261719 469.640625 303.648438 473.578125 304.464844 479.371094 C 302.605469 480.992188 300.527344 481.921875 298.324219 481.921875 Z M 335.027344 490.371094 C 335.027344 492.34375 334.796875 495.582031 332.710938 495.582031 C 329.816406 495.582031 328.546875 491.648438 327.617188 488.054688 C 333.984375 481.105469 337.226562 471.261719 337.226562 459.097656 C 337.226562 434.425781 324.957031 417.976562 297.632812 417.976562 C 274.355469 417.976562 258.722656 434.65625 258.722656 458.289062 C 258.722656 485.625 274.929688 499.292969 298.324219 499.292969 C 301.449219 499.292969 304.578125 499.0625 307.355469 498.597656 C 309.902344 505.433594 315.8125 511.453125 325.300781 511.453125 C 336.882812 511.453125 342.671875 503.230469 342.671875 492.921875 L 342.671875 487.011719 L 335.027344 487.011719 L 335.027344 490.371094 " fill-opacity="1" fill-rule="nonzero"/><path fill="#f9d606" d="M 386.488281 433.613281 L 392.742188 433.613281 L 392.742188 458.171875 C 392.742188 478.097656 388.113281 480.878906 381.046875 480.878906 C 373.640625 480.878906 369.46875 476.9375 369.46875 458.289062 L 369.46875 433.269531 L 375.722656 433.269531 L 375.722656 418.328125 L 338.898438 418.328125 L 338.898438 433.382812 L 345.386719 433.382812 L 345.386719 461.992188 C 345.386719 488.289062 357.890625 500.570312 381.28125 501.265625 C 403.046875 501.265625 414.511719 488.871094 414.511719 461.414062 L 414.511719 433.269531 L 420.761719 433.269531 L 420.761719 418.328125 L 386.488281 418.328125 L 386.488281 433.613281 " fill-opacity="1" fill-rule="nonzero"/><path fill="#f9d606" d="M 427.804688 433.613281 L 435.09375 433.613281 L 435.09375 483.886719 L 427.804688 483.886719 L 427.804688 499.292969 L 466.242188 499.292969 L 466.242188 483.886719 L 459.070312 483.886719 L 459.070312 433.613281 L 466.242188 433.613281 L 466.242188 418.328125 L 427.804688 418.328125 L 427.804688 433.613281 " fill-opacity="1" fill-rule="nonzero"/><path fill="#f9d606" d="M 528.078125 484 L 506.539062 484 L 548.917969 433.730469 L 548.6875 418.328125 L 472.726562 418.328125 L 472.726562 448.789062 L 492.40625 448.789062 L 492.40625 433.730469 L 514.179688 433.730469 L 472.027344 484.238281 L 472.027344 499.292969 L 548.574219 499.292969 L 548.574219 469.175781 L 528.078125 469.175781 L 528.078125 484 " fill-opacity="1" fill-rule="nonzero"/><path fill="#f9d606" d="M 309.550781 349.140625 C 316.304688 349.140625 321.628906 353.886719 321.628906 361.421875 C 321.628906 368.671875 313.566406 370.457031 313.566406 373.800781 L 313.566406 376.871094 L 304.125 376.871094 L 304.125 372.414062 C 304.125 367.28125 312.191406 364.378906 312.191406 361.308594 C 312.191406 359.191406 310.214844 357.839844 308.4375 357.839844 C 306.253906 357.839844 304.46875 359.738281 302.746094 361.972656 L 296.824219 356.46875 C 300.375 351.953125 304.480469 349.140625 309.550781 349.140625 Z M 308.714844 390.039062 C 305.679688 390.039062 303.222656 387.570312 303.222656 384.535156 C 303.222656 381.496094 305.679688 379.035156 308.714844 379.035156 C 311.753906 379.035156 314.214844 381.496094 314.214844 384.535156 C 314.214844 387.570312 311.753906 390.039062 308.714844 390.039062 Z M 309.226562 401.960938 C 327.476562 401.960938 342.273438 387.160156 342.273438 368.902344 C 342.273438 350.648438 327.476562 335.847656 309.226562 335.847656 C 290.976562 335.847656 276.183594 350.648438 276.183594 368.902344 C 276.183594 387.160156 290.976562 401.960938 309.226562 401.960938 " fill-opacity="1" fill-rule="nonzero"/><path fill="#f9d606" d="M 507.6875 356.230469 C 513.335938 356.230469 517.785156 360.203125 517.785156 366.507812 C 517.785156 372.570312 511.039062 374.066406 511.039062 376.863281 L 511.039062 379.425781 L 503.140625 379.425781 L 503.140625 375.699219 C 503.140625 371.40625 509.890625 368.972656 509.890625 366.410156 C 509.890625 364.636719 508.234375 363.507812 506.75 363.507812 C 504.925781 363.507812 503.429688 365.101562 501.988281 366.964844 L 497.03125 362.363281 C 500.003906 358.585938 503.441406 356.230469 507.6875 356.230469 Z M 506.984375 390.441406 C 504.441406 390.441406 502.386719 388.378906 502.386719 385.839844 C 502.386719 383.300781 504.441406 381.242188 506.984375 381.242188 C 509.523438 381.242188 511.582031 383.300781 511.582031 385.839844 C 511.582031 388.378906 509.523438 390.441406 506.984375 390.441406 Z M 507.414062 400.417969 C 522.675781 400.417969 535.054688 388.039062 535.054688 372.761719 C 535.054688 357.496094 522.675781 345.113281 507.414062 345.113281 C 492.140625 345.113281 479.769531 357.496094 479.769531 372.761719 C 479.769531 388.039062 492.140625 400.417969 507.414062 400.417969 " fill-opacity="1" fill-rule="nonzero"/></svg>