<svg xmlns="http://www.w3.org/2000/svg" xmlns:xlink="http://www.w3.org/1999/xlink" width="4000" zoomAndPan="magnify" viewBox="0 0 3000 2999.999989" height="4000" preserveAspectRatio="xMidYMid meet" version="1.0"><defs><clipPath id="47694f5eb6"><path d="M 763.125 763.125 L 2236.875 763.125 L 2236.875 2236.875 L 763.125 2236.875 Z M 763.125 763.125 " clip-rule="nonzero"/></clipPath></defs><g clip-path="url(#47694f5eb6)"><path fill="#bccef8" d="M 763.027344 1499.953125 C 763.027344 1092.957031 1092.96875 763.027344 1499.953125 763.027344 C 1906.949219 763.027344 2236.875 1092.957031 2236.875 1499.953125 C 2236.875 1906.933594 1906.949219 2236.863281 1499.953125 2236.863281 C 1092.96875 2236.863281 763.027344 1906.933594 763.027344 1499.953125 " fill-opacity="1" fill-rule="nonzero"/></g><path fill="#37306b" d="M 1261.179688 1593.632812 C 1242.265625 1640.839844 1212.015625 1669.878906 1169.054688 1691.890625 C 1159.011719 1697.039062 1152.800781 1707.535156 1152.824219 1718.8125 C 1152.890625 1737.476562 1169.492188 1751.640625 1187.929688 1748.792969 C 1266.40625 1736.714844 1449.953125 1681.597656 1455.179688 1430.679688 C 1455.300781 1428.097656 1455.378906 1425.519531 1455.378906 1422.910156 C 1455.378906 1421.914062 1455.324219 1420.929688 1455.300781 1419.945312 C 1455.300781 1419.839844 1455.3125 1419.746094 1455.3125 1419.652344 L 1455.300781 1419.652344 C 1453.558594 1326.0625 1377.195312 1250.722656 1283.207031 1250.722656 C 1188.113281 1250.722656 1111.019531 1327.820312 1111.019531 1422.910156 C 1111.019531 1510.527344 1176.488281 1582.820312 1261.179688 1593.632812 " fill-opacity="1" fill-rule="nonzero"/><path fill="#37306b" d="M 1694.683594 1593.632812 C 1675.78125 1640.839844 1645.535156 1669.878906 1602.570312 1691.890625 C 1592.515625 1697.039062 1586.304688 1707.535156 1586.34375 1718.8125 C 1586.398438 1737.476562 1603.011719 1751.640625 1621.445312 1748.792969 C 1699.925781 1736.714844 1883.457031 1681.597656 1888.683594 1430.679688 C 1888.804688 1428.097656 1888.882812 1425.519531 1888.882812 1422.910156 C 1888.882812 1421.914062 1888.832031 1420.929688 1888.816406 1419.945312 C 1888.816406 1419.839844 1888.816406 1419.746094 1888.816406 1419.652344 L 1888.804688 1419.652344 C 1887.0625 1326.0625 1810.710938 1250.722656 1716.710938 1250.722656 C 1621.621094 1250.722656 1544.523438 1327.820312 1544.523438 1422.910156 C 1544.523438 1510.527344 1609.996094 1582.820312 1694.683594 1593.632812 " fill-opacity="1" fill-rule="nonzero"/></svg>