<svg xmlns="http://www.w3.org/2000/svg" xmlns:xlink="http://www.w3.org/1999/xlink" width="1080" zoomAndPan="magnify" viewBox="0 0 810 809.999993" height="1080" preserveAspectRatio="xMidYMid meet" version="1.0"><defs><clipPath id="id1"><path d="M 244.605469 244 L 565.605469 244 L 565.605469 566 L 244.605469 566 Z M 244.605469 244 " clip-rule="nonzero"/></clipPath></defs><g clip-path="url(#id1)"><path fill="#8ccdb0" d="M 405.105469 244.605469 C 316.464844 244.605469 244.605469 316.414062 244.605469 405 C 244.605469 493.585938 316.464844 565.398438 405.105469 565.398438 C 493.75 565.398438 565.605469 493.585938 565.605469 405 C 565.605469 316.414062 493.75 244.605469 405.105469 244.605469 Z M 391.410156 507.875 C 355.082031 507.753906 320.863281 486.4375 315.527344 433.003906 C 311.152344 434.734375 307.066406 435.867188 303.003906 435.867188 C 300.398438 435.855469 299.246094 433.246094 299.246094 430.621094 C 299.269531 426.554688 305.667969 421.070312 314.984375 416.449219 C 315.761719 356.609375 355.230469 286.460938 421.765625 286.671875 C 456.628906 286.789062 474.296875 303.707031 474.253906 316.761719 C 474.253906 321.121094 472.785156 322.570312 469.582031 322.554688 C 462.308594 322.53125 446.375 314.636719 419.359375 314.566406 C 387.6875 314.449219 367.230469 349.816406 361.289062 386.105469 C 378.167969 378.617188 395.917969 374.585938 414.207031 374.652344 C 459.25 374.808594 482.097656 405.074219 482.003906 436.449219 C 481.859375 480.855469 442.835938 508.046875 391.410156 507.875 Z M 391.410156 507.875 " fill-opacity="1" fill-rule="nonzero"/></g><path fill="#8ccdb0" d="M 404.835938 401.328125 C 388.277344 401.285156 374.890625 404.730469 359.457031 412.214844 C 360.773438 451.4375 379.613281 471.519531 402.859375 471.59375 C 426.984375 471.675781 443.003906 455.164062 443.074219 435.710938 C 443.125 416.546875 430.113281 401.398438 404.835938 401.328125 Z M 404.835938 401.328125 " fill-opacity="1" fill-rule="nonzero"/></svg>