<svg xmlns="http://www.w3.org/2000/svg" xmlns:xlink="http://www.w3.org/1999/xlink" width="1080" zoomAndPan="magnify" viewBox="0 0 810 809.999993" height="1080" preserveAspectRatio="xMidYMid meet" version="1.0"><path fill="#5e17eb" d="M 405 243 C 315.53125 243 243 315.53125 243 405 C 243 494.476562 315.53125 567 405 567 C 494.476562 567 567 494.476562 567 405 C 567 315.53125 494.476562 243 405 243 Z M 395.433594 503.128906 C 358.914062 503.007812 332.382812 477.6875 332.445312 459.292969 C 332.457031 455.984375 334.664062 454.371094 338.214844 454.371094 C 352.46875 454.421875 365.050781 476.703125 389.472656 476.777344 C 419.949219 476.871094 431.539062 454.128906 431.578125 439.863281 C 431.648438 421.1875 425.941406 408.261719 420.179688 399.722656 C 416.351562 400.53125 412.5 400.792969 408.378906 400.78125 C 396.847656 400.742188 382.578125 398.230469 382.617188 387.238281 C 382.652344 376.253906 396.9375 374.664062 408.195312 374.699219 C 410.402344 374.699219 413.972656 375.273438 418.054688 376.386719 C 423.851562 368.992188 429.65625 358.578125 429.707031 343.203125 C 429.789062 326.457031 419.921875 316.8125 403.71875 316.765625 C 366.371094 316.652344 367.105469 342.730469 352.289062 342.683594 C 350.082031 342.683594 348.742188 340.191406 348.742188 338.277344 C 348.800781 319.335938 370.847656 290.3125 410.660156 290.4375 C 449.910156 290.5625 472.902344 307.925781 472.804688 340.050781 C 472.75 357.894531 462.257812 376.53125 446.023438 388.554688 C 462.195312 399.039062 477.234375 416.375 477.152344 443.007812 C 477.003906 483.636719 432.765625 503.25 395.433594 503.128906 Z M 395.433594 503.128906 " fill-opacity="1" fill-rule="nonzero"/></svg>