<svg xmlns="http://www.w3.org/2000/svg" xmlns:xlink="http://www.w3.org/1999/xlink" width="1080" zoomAndPan="magnify" viewBox="0 0 810 809.999993" height="1080" preserveAspectRatio="xMidYMid meet" version="1.0"><path fill="#8ccdb0" d="M 338.734375 472.535156 C 338.722656 478.027344 343.652344 480.238281 348.039062 480.265625 C 352.707031 480.289062 358.203125 475.914062 364.542969 469.0625 C 358.796875 466.292969 353.582031 464.359375 348.644531 464.347656 C 343.421875 464.324219 338.761719 467.054688 338.734375 472.535156 Z M 338.734375 472.535156 " fill-opacity="1" fill-rule="nonzero"/><path fill="#8ccdb0" d="M 405 243 C 315.53125 243 243 315.53125 243 405 C 243 494.476562 315.53125 567 405 567 C 494.476562 567 567 494.476562 567 405 C 567 315.53125 494.476562 243 405 243 Z M 430.617188 498.085938 C 415.234375 498.046875 401.257812 491.144531 388.664062 483.6875 C 378.75 494.355469 364.183594 501.71875 344.957031 501.671875 C 322.453125 501.601562 312.046875 488.933594 312.117188 470.8125 C 312.175781 451.878906 327.5625 442.585938 348.703125 442.660156 C 362.4375 442.699219 373.136719 444.398438 381.910156 447.160156 L 387.417969 440.320312 C 405.070312 413.734375 426.316406 377.027344 426.425781 343.257812 C 426.476562 326.511719 416.085938 316.867188 400.441406 316.824219 C 363.105469 316.695312 363.851562 342.789062 349.023438 342.738281 C 346.824219 342.722656 345.449219 340.246094 345.460938 338.332031 C 345.53125 319.398438 367.585938 290.359375 407.394531 290.492188 C 446.648438 290.621094 469.652344 308.261719 469.5625 340.113281 C 469.425781 382.65625 439.34375 430.59375 411.253906 460.152344 C 421.117188 465.121094 430.425781 469.273438 444.421875 469.328125 C 457.324219 469.351562 469.996094 463.082031 479.070312 451.585938 C 483.199219 446.105469 486.796875 443.628906 488.988281 443.640625 C 491.746094 443.652344 493.09375 447.769531 493.070312 454.078125 C 492.996094 476.058594 467.675781 498.21875 430.617188 498.085938 Z M 430.617188 498.085938 " fill-opacity="1" fill-rule="nonzero"/></svg>