<svg xmlns="http://www.w3.org/2000/svg" xmlns:xlink="http://www.w3.org/1999/xlink" width="1080" zoomAndPan="magnify" viewBox="0 0 810 809.999993" height="1080" preserveAspectRatio="xMidYMid meet" version="1.0"><defs><clipPath id="id1"><path d="M 181 248.425781 L 629.421875 248.425781 L 629.421875 561.925781 L 181 561.925781 Z M 181 248.425781 " clip-rule="nonzero"/></clipPath></defs><g clip-path="url(#id1)"><path fill="#000000" d="M 469.535156 411.148438 L 368.722656 466.457031 C 364.34375 468.828125 360.398438 465.652344 360.398438 460.675781 L 360.398438 347.136719 C 360.398438 342.089844 364.464844 338.921875 368.855469 341.414062 L 470.359375 399.636719 C 474.84375 402.199219 474.082031 408.683594 469.535156 411.148438 Z M 629.023438 345.921875 C 629.023438 292.074219 585.390625 248.425781 531.566406 248.425781 L 278.78125 248.425781 C 224.960938 248.425781 181.316406 292.074219 181.316406 345.921875 L 181.316406 464.429688 C 181.316406 518.277344 224.960938 561.925781 278.78125 561.925781 L 531.566406 561.925781 C 585.390625 561.925781 629.023438 518.277344 629.023438 464.429688 Z M 629.023438 345.921875 " fill-opacity="1" fill-rule="evenodd"/></g></svg>